<svg width="162" height="76" viewBox="0 0 162 76" fill="none" xmlns="http://www.w3.org/2000/svg">
<g clip-path="url(#clip0_1_1254)">
<path d="M15.0071 11.0997C15.2319 11.2437 15.2242 11.651 14.9937 12.0102C14.7631 12.3694 14.3943 12.5442 14.1715 12.3944C13.9486 12.2446 13.9544 11.8431 14.1849 11.4839C14.4154 11.1246 14.7843 10.9556 15.0071 11.0997Z" fill="#3F468E"/>
<path d="M16.8897 10.0183C17.1125 10.1624 17.1067 10.5696 16.8743 10.9288C16.6419 11.2881 16.2749 11.4648 16.0521 11.313C15.8293 11.1613 15.835 10.7617 16.0675 10.4025C16.2999 10.0433 16.6668 9.87615 16.8897 10.0183Z" fill="#3F468E"/>
<path d="M15.0744 11.2856C15.0303 11.2164 14.9496 8.70759 14.9496 8.70759L16.9512 6.94604V10.2886" stroke="#3F468E" stroke-width="0.84" stroke-linecap="round" stroke-linejoin="round"/>
<path d="M35.9535 26.6634C36.1764 26.8056 36.1706 27.2148 35.9401 27.574C35.7096 27.9332 35.3407 28.108 35.1179 27.9582C34.8951 27.8083 34.9008 27.4069 35.1313 27.0457C35.3619 26.6846 35.7307 26.5194 35.9535 26.6634Z" fill="#3F468E"/>
<path d="M37.8361 25.5816C38.0589 25.7257 38.0512 26.1329 37.8207 26.4921C37.5902 26.8514 37.2213 27.0281 36.9985 26.8763C36.7757 26.7246 36.7814 26.325 37.012 25.9658C37.2425 25.6066 37.6113 25.4375 37.8361 25.5816Z" fill="#3F468E"/>
<path d="M36.0207 26.8498C35.9766 26.7806 35.8959 24.2718 35.8959 24.2718L37.8899 22.5103V25.8489" stroke="#3F468E" stroke-width="0.84" stroke-linecap="round" stroke-linejoin="round"/>
<path d="M25.5475 3.51917C25.7703 3.66324 25.7626 4.07049 25.5321 4.42972C25.3016 4.78894 24.9328 4.96375 24.7099 4.81391C24.4871 4.66408 24.4929 4.26259 24.7234 3.90337C24.9539 3.54414 25.3227 3.37317 25.5475 3.51917Z" fill="#3F468E"/>
<path d="M25.6128 3.70564C25.5686 3.63648 25.4879 1.12768 25.4879 1.12768L26.5003 0.251709" stroke="#3F468E" stroke-width="0.84" stroke-linecap="round" stroke-linejoin="round"/>
<path d="M28.4329 66.4124C27.1573 66.2203 26.2276 65.279 25.9567 64.9332C25.9567 64.9448 20.5146 54.3813 18.3842 51.8705C19.5618 48.8527 23.5248 46.4418 25.3324 44.8378C25.7512 44.4671 28.139 42.5115 28.6327 42.2483C31.0569 40.9574 32.2095 38.7636 31.4296 34.5432C30.4941 35.2675 28.4655 33.7537 25.2709 33.0276C25.2709 33.0276 15.8812 42.0562 13.5683 46.5379C11.2016 51.1194 10.8002 52.1087 17.5582 60.1385C19.4311 62.6357 25.2921 69.8202 25.2921 69.8202C25.2921 69.8202 27.021 74.5228 27.0478 74.5939C27.0747 74.6649 28.4694 70.0315 29.1187 67.8896C29.2992 67.2941 29.0534 66.5027 28.4329 66.4124Z" fill="#FFC56B"/>
<path d="M24.1337 61.829C24.1472 61.7444 24.1625 61.6599 24.176 61.5735C22.3952 58.2559 19.7308 53.4573 18.3842 51.8725C19.5618 48.8546 23.5248 46.4438 25.3324 44.8398C25.7512 44.469 28.139 42.5134 28.6327 42.2503C31.0569 40.9594 32.2095 38.7656 31.4296 34.5452C30.4941 35.2694 28.4655 33.7557 25.2709 33.0295C25.2709 33.0295 15.8812 42.0582 13.5683 46.5398C11.2016 51.1214 10.8002 52.1107 17.5582 60.1404C18.461 61.3449 20.2898 63.6385 21.9419 65.6901C22.6449 64.3877 23.3756 63.1006 24.1337 61.829Z" fill="#1E2046"/>
<path d="M20.3493 64.8447C21.3617 64.1128 24.222 62.0766 25.2882 61.4273C24.2681 59.2085 21.9284 56.1599 20.1342 53.9623C19.5576 53.2544 19.2611 52.3594 19.3007 51.4472C19.3404 50.535 19.7135 49.6691 20.3493 49.0139C22.1916 47.1102 24.6389 45.5715 25.705 44.4804C26.5877 43.6115 27.5765 42.8577 28.648 42.2366C31.0607 40.9438 32.0328 38.1776 31.2548 33.9764C30.3192 34.6987 28.4655 33.7593 25.2709 33.0332C25.2709 33.0332 15.8811 42.0618 13.5683 46.5435C11.2016 51.125 11.4187 51.2326 11.7779 52.4159C12.9862 54.8652 19.0642 63.2388 20.3493 64.8447Z" fill="#0096C8"/>
<g style="mix-blend-mode:multiply">
<path d="M17.8654 41.6605C19.1736 42.9456 20.4242 44.2903 21.6786 45.635C22.0532 46.0403 22.4316 46.4437 22.8081 46.8471C23.9818 45.9174 25.0806 45.1183 25.7049 44.4843C26.5876 43.6155 27.5764 42.8617 28.6479 42.2406C31.0607 40.9478 32.0327 38.0356 31.2547 33.8248C30.3192 34.5471 28.4654 33.7537 25.2708 33.0276C25.2708 33.0276 20.9524 37.1808 17.4524 41.2513L17.8654 41.6605Z" fill="#1E2046"/>
</g>
<path d="M26.0489 73.489L25.6109 71.4989L27.0055 72.227L26.9364 65.8877L29.5739 66.7733L27.0478 74.5859C26.8004 74.5055 26.5782 74.3621 26.4031 74.1698C26.2279 73.9775 26.1059 73.7429 26.0489 73.489Z" fill="#FF937E"/>
<path d="M7.40769 59.0032C6.78929 57.4032 6.51377 55.6912 6.59895 53.9779C6.58743 53.9779 10.4409 44.8917 10.7271 41.6087C13.7431 40.3082 17.8348 41.2668 20.2821 41.4166C20.8488 41.4512 26.3889 43.4356 28.3925 42.4462C32.538 40.4023 30.861 35.8265 31.1587 34.0266C29.9677 33.8748 28.7517 33.7941 25.4131 32.8567C25.4131 32.8567 16.0156 32.9066 11.1382 34.4357C6.14368 35.9994 5.14477 36.4201 4.17659 46.876C3.70979 49.9707 2.70896 59.1972 2.70896 59.1972C2.70896 59.1972 0.555535 63.75 0.520957 63.8076C0.48638 63.8652 4.82396 61.5869 6.83139 60.5323C7.09961 60.3939 7.30698 60.161 7.41342 59.8785C7.51987 59.5961 7.51782 59.2842 7.40769 59.0032Z" fill="#FFC56B"/>
<path d="M31.3585 34.021C29.3458 33.8213 27.3569 33.4295 25.4188 32.8511C25.4188 32.8511 16.0214 32.901 11.144 34.4301C6.14942 35.9938 5.15051 36.4145 4.18233 46.8704C3.86537 48.9662 3.30636 53.8724 2.97595 56.8231C4.15544 55.8779 5.35413 54.9597 6.60085 54.1087C6.60085 54.0664 6.60085 54.0223 6.60085 53.9781C6.58932 53.9781 10.4428 44.8918 10.729 41.6088C13.745 40.3083 17.8367 41.2669 20.284 41.4168C20.8507 41.4513 26.3908 43.4357 28.3944 42.4464C32.538 40.3967 31.055 35.8209 31.3585 34.021Z" fill="#1E2046"/>
<path d="M31.3585 34.069C30.1675 33.9172 28.7575 33.7885 25.4188 32.8511C25.4188 32.8511 16.0214 32.901 11.144 34.4301C6.14943 35.9938 5.13899 36.2973 3.84425 40.8981C3.69634 41.8144 1.77535 53.0118 1.58325 54.6043C2.86647 55.0154 7.05998 53.9665 8.3163 54.4468C8.34896 52.0897 9.56878 47.3238 10.268 44.1503C10.4711 43.2418 10.9894 42.4346 11.7311 41.8719C12.4727 41.3092 13.3897 41.0275 14.3194 41.0767C16.3864 41.1843 18.4437 41.8009 19.9613 42.0372C22.0859 42.3599 27.1247 42.8786 29.1282 41.8893C33.2661 39.8358 32.0309 35.4771 31.3585 34.069Z" fill="#0096C8"/>
<path d="M0.520923 63.8095C0.284642 63.335 1.8464 60.0174 1.8464 60.0174L2.6148 61.4639L6.85249 57.0188C6.85249 57.0188 8.14531 59.8715 7.68043 60.0924C7.21555 60.3133 0.520923 63.8095 0.520923 63.8095Z" fill="#FF937E"/>
<path d="M2.19991 51.1943C3.05282 51.3442 3.99603 51.4959 4.82205 51.1578C5.1175 51.0374 5.37792 50.8447 5.57933 50.5973C5.78075 50.3499 5.91669 50.0558 5.97464 49.7421C6.30697 48.357 5.93622 46.7146 5.13901 45.5505C4.76442 45.003 4.17852 44.7302 3.68867 44.3191C3.64065 44.2807 3.56957 44.3498 3.61951 44.3902C4.00371 44.7071 4.47243 44.9338 4.81437 45.2988C5.26358 45.821 5.58517 46.4405 5.75373 47.1084C5.94834 47.7809 6.01992 48.4831 5.96504 49.1811C5.90933 49.8208 5.71147 50.5124 5.1467 50.8831C4.29186 51.4421 3.17769 51.2673 2.23256 51.1002C2.16917 51.0887 2.14228 51.1828 2.20567 51.1943H2.19991Z" fill="#FFF8ED"/>
<path d="M9.18841 46.828C7.83464 45.4305 7.00012 43.6116 6.82368 41.674C6.77757 41.1284 6.82368 40.5982 7.27895 40.2275C7.674 39.9305 8.12378 39.7144 8.60251 39.5916C9.55686 39.34 10.5546 39.2993 11.5262 39.4725C12.6071 39.6581 13.6673 39.9483 14.692 40.3389C14.7516 40.36 14.7785 40.2639 14.7189 40.2428C12.8075 39.5609 10.6368 38.9116 8.61211 39.4879C7.78993 39.7222 6.81023 40.1468 6.71802 41.1092C6.69195 41.6181 6.74049 42.1281 6.8621 42.6229C7.19081 44.2347 7.97328 45.719 9.11733 46.9009C9.16152 46.9451 9.23259 46.876 9.18841 46.8299V46.828Z" fill="#FFF8ED"/>
<path d="M12.3772 34.5952L14.9821 36.8696C15.6967 37.494 16.419 38.2816 17.3161 38.6427C18.8298 39.2517 20.5088 38.2451 21.0889 36.8178C21.4487 35.8699 21.4745 34.8277 21.1619 33.8633C21.1446 33.8018 21.0486 33.8287 21.0678 33.8883C21.5538 35.5019 21.2003 37.4709 19.627 38.3488C19.2904 38.5454 18.915 38.6665 18.5269 38.7037C18.1389 38.7408 17.7473 38.6931 17.3795 38.5639C16.9348 38.3702 16.5257 38.1034 16.1693 37.7744C15.7851 37.4536 15.4239 37.1251 15.0513 36.8005L12.4483 34.526C12.4003 34.4838 12.3311 34.5529 12.3772 34.5952Z" fill="#FFF8ED"/>
<path d="M23.5094 42.5615C23.0656 41.7835 22.5085 40.6828 23.2481 39.8914C23.6477 39.4611 24.2297 39.5763 24.733 39.7223C25.2363 39.8683 25.7608 40.0239 26.2698 40.1757C26.7789 40.3274 27.8373 40.7251 28.1044 39.972C28.2408 39.5879 28.0237 39.1614 28.0506 38.7657C28.1022 38.3075 28.3319 37.8879 28.6903 37.5977C29.6085 36.7967 30.9109 36.9484 32.0289 37.0906C32.0923 37.1002 32.0904 37.0003 32.0289 36.9926C31.0339 36.8658 29.9159 36.7256 29.0034 37.2519C28.2869 37.6688 27.8508 38.3853 27.9853 39.2171C28.0294 39.4918 28.1159 39.8145 27.9488 40.0662C27.7816 40.3178 27.4916 40.3332 27.2342 40.3121C26.7097 40.2679 26.1815 40.047 25.6782 39.8991C24.8925 39.6666 23.7226 39.098 23.0925 39.9163C22.4413 40.7635 22.9657 41.8162 23.421 42.6057C23.4287 42.6145 23.4392 42.6203 23.4507 42.6221C23.4622 42.624 23.474 42.6217 23.484 42.6158C23.494 42.6099 23.5017 42.6006 23.5056 42.5897C23.5095 42.5787 23.5095 42.5667 23.5055 42.5558L23.5094 42.5615Z" fill="#FFF8ED"/>
<path d="M15.7774 43.4069C16.104 43.8141 16.5458 44.0792 16.93 44.4288C17.3142 44.7785 17.6984 45.3893 17.4429 45.9407C17.1528 46.5631 16.3402 46.782 15.7985 47.1144C15.2568 47.4467 14.8707 47.9923 15.1358 48.6646C15.3029 49.0853 15.6141 49.433 15.8158 49.8326C15.9341 50.0823 15.999 50.3539 16.0063 50.6301C16.0136 50.9063 15.9631 51.181 15.8581 51.4366C15.4066 52.6411 14.1887 53.2423 13.1015 53.7668C13.0438 53.7936 13.1015 53.8782 13.1514 53.8513C14.1119 53.3883 15.1492 52.8908 15.7217 51.9399C15.9819 51.5283 16.1155 51.0494 16.1059 50.5625C16.0848 50.0669 15.8504 49.6674 15.5872 49.262C15.324 48.8567 15.0109 48.3765 15.203 47.8712C15.3394 47.512 15.6813 47.295 16.0021 47.1029C16.5419 46.8013 17.2911 46.5554 17.5505 45.9368C18.048 44.7458 16.4305 44.0581 15.8427 43.33C15.8024 43.2801 15.7332 43.3512 15.7736 43.3992L15.7774 43.4069Z" fill="#FFF8ED"/>
<path d="M15.0397 56.8321C15.7276 56.5459 16.4685 56.4096 17.2132 56.4325C17.9579 56.4553 18.6891 56.6368 19.3581 56.9647C20.6984 57.6336 21.7483 58.7689 22.3106 60.1573C22.6396 60.9394 22.8344 61.7713 22.8869 62.6181C22.8869 62.6815 22.9888 62.6815 22.9849 62.6181C22.9037 61.0814 22.3389 59.6096 21.3713 58.4131C20.8879 57.8287 20.294 57.3455 19.6235 56.9911C18.953 56.6368 18.2191 56.4182 17.464 56.348C16.62 56.2714 15.7704 56.4089 14.9936 56.7476C14.936 56.7726 14.9936 56.8571 15.0436 56.8321H15.0397Z" fill="#FFF8ED"/>
<path d="M19.9324 48.6373C19.4131 48.7079 18.9304 48.9441 18.556 49.3109C18.1817 49.6776 17.9355 50.1552 17.8542 50.673C17.7729 51.1907 17.8607 51.7208 18.1046 52.1847C18.3485 52.6485 18.7355 53.0213 19.2082 53.2477C19.2658 53.2765 19.3157 53.192 19.2581 53.1632C18.7997 52.9479 18.4236 52.5896 18.1864 52.1421C17.9492 51.6947 17.8637 51.1823 17.9427 50.6821C18.0218 50.1818 18.2612 49.7208 18.6249 49.3683C18.9885 49.0159 19.4568 48.791 19.9593 48.7276C20.0208 48.718 19.9939 48.6239 19.9324 48.6335V48.6373Z" fill="#FFF8ED"/>
<path d="M7.08306 25.4226C6.41703 24.8006 5.61921 24.337 4.74906 24.0664C4.71108 24.052 4.67045 24.0461 4.62996 24.0491C4.58238 24.0653 4.54306 24.0995 4.52043 24.1444C4.49781 24.1893 4.49368 24.2413 4.50894 24.2892C4.54888 24.3848 4.61558 24.4669 4.70104 24.5255C5.05642 24.8405 5.40604 25.1959 5.76142 25.5109" fill="#FFC56B"/>
<path d="M5.69215 25.2112L6.6219 25.1459L6.59885 25.0979C6.49704 24.9346 6.40675 24.7137 6.50857 24.5581C6.52288 24.5308 6.54271 24.5067 6.5668 24.4875C6.59089 24.4682 6.6187 24.4542 6.6485 24.4462C6.67829 24.4383 6.7094 24.4366 6.73988 24.4413C6.77035 24.446 6.79951 24.457 6.82553 24.4735C7.04452 24.6215 8.30276 25.3975 8.33158 26.285C8.33158 26.285 14.3923 27.8391 15.055 27.9236C15.7178 28.0082 18.1901 25.9681 18.1901 25.9681L21.2982 28.4231C21.2982 28.4231 16.394 31.7406 15.6755 31.7253C14.9878 31.708 7.46714 28.4826 6.8505 28.2176C6.3107 28.329 5.79396 28.1157 5.32332 27.7143C5.13491 27.552 5.00721 27.3306 4.96114 27.0863C4.91507 26.842 4.95336 26.5893 5.06975 26.3696L5.69215 25.2112Z" fill="#FFC56B"/>
<path d="M19.8999 23.4955C18.098 25.3608 15.4817 27.9772 15.059 27.9234C14.9553 27.9099 14.719 27.86 14.3944 27.787C14.1639 29.0625 13.9718 30.3457 13.7874 31.629C14.9399 32.1284 15.8428 32.4934 16.0484 32.4992C16.7649 32.5165 22.134 27.9061 22.134 27.9061L24.0435 21.3594C22.4049 21.5553 21.0448 22.3083 19.8999 23.4955Z" fill="#FF937E"/>
<path d="M5.75366 25.5107C5.75366 25.5107 7.06762 25.4358 6.85439 26.3828C6.64116 27.3298 6.37222 28.1117 6.37222 28.1117C6.37222 28.1117 7.52481 26.5173 7.43837 26.0908C7.35192 25.6644 5.75366 25.5107 5.75366 25.5107Z" fill="#753231"/>
<path d="M25.3727 12.4021C25.2682 11.9439 25.2932 11.4658 25.4448 11.0211C25.5965 10.5763 25.8688 10.1825 26.2314 9.88365C27.4973 8.83479 28.3156 10.022 29.2953 9.66658C30.275 9.31119 29.9677 8.99999 30.8475 7.82051C31.7273 6.64103 33.9537 9.40532 34.3206 8.01261C34.6875 6.6199 36.136 10.5099 34.7663 11.6183C33.3966 12.7267 32.1653 12.3002 31.3412 12.2445C30.5171 12.1888 30.2846 14.1079 28.865 14.1079C27.991 14.1156 25.9317 14.0541 25.3727 12.4021Z" fill="#3F468E"/>
<path d="M20.9179 15.7251C20.6067 15.3678 20.5068 14.1153 20.7258 13.6908C21.3021 12.5382 22.1127 11.9619 23.3864 11.7064C24.3699 11.5143 29.8466 12.8148 25.9547 18.2204" fill="#3F468E"/>
<path d="M20.7681 16.653C20.2994 14.1557 21.9745 13.4872 22.4182 13.3508C22.7909 13.2375 24.0184 12.7053 25.3458 15.5081C25.3522 15.5214 25.3611 15.5333 25.3721 15.5431C25.3831 15.5529 25.396 15.5605 25.4099 15.5653C25.4238 15.5701 25.4386 15.5721 25.4533 15.5712C25.468 15.5703 25.4824 15.5665 25.4957 15.5599C25.7281 15.4389 26.2391 15.1162 26.6271 15.6848C27.0152 16.2534 26.6079 16.9065 26.2641 17.1063C26.1661 17.1639 25.9413 17.2984 25.9106 17.4156C25.8972 17.4675 25.8145 17.5424 25.6878 17.6307L27.4263 20.7158C22.4663 25.6451 23.5535 21.1788 23.5535 21.1788L23.2904 18.8256C23.2078 18.8602 22.8639 19.0523 22.8601 19.0542C22.2165 19.2136 21.2753 19.3558 20.7681 16.653Z" fill="#FFC56B"/>
<path d="M26.4312 15.8601C26.4312 15.8601 25.6628 15.2742 25.7358 16.5459L26.4312 15.8601Z" fill="#DB8F42"/>
<path d="M23.3057 16.3973C23.1966 16.4499 23.1055 16.5337 23.044 16.6381C22.9824 16.7425 22.9532 16.8628 22.9601 16.9838C22.9669 17.1048 23.0095 17.221 23.0824 17.3178C23.1552 17.4146 23.2552 17.4877 23.3696 17.5277C23.484 17.5677 23.6076 17.5729 23.725 17.5426C23.8423 17.5123 23.9481 17.4479 24.0288 17.3576C24.1096 17.2672 24.1617 17.155 24.1787 17.035C24.1956 16.915 24.1766 16.7927 24.1241 16.6835C24.0892 16.6109 24.0403 16.546 23.9803 16.4923C23.9202 16.4387 23.8502 16.3974 23.7742 16.3708C23.6982 16.3442 23.6177 16.3329 23.5373 16.3374C23.457 16.3419 23.3783 16.3623 23.3057 16.3973Z" fill="#FFA64D"/>
<path d="M21.06 17.7803C21.1807 17.6977 21.2709 17.5778 21.3167 17.439C21.3626 17.3001 21.3615 17.15 21.3136 17.0119C21.2648 16.9079 21.1904 16.8181 21.0973 16.7509C21.0042 16.6837 20.8955 16.6413 20.7815 16.6277C20.824 17.0223 20.9176 17.4098 21.06 17.7803Z" fill="#FFA64D"/>
<path d="M21.9455 17.1814H21.6478C21.6329 17.1821 21.6181 17.179 21.6048 17.1723C21.5914 17.1656 21.5801 17.1556 21.5718 17.1432C21.5634 17.1309 21.5585 17.1166 21.5573 17.1017C21.5562 17.0868 21.5589 17.0719 21.5652 17.0584L21.7573 16.509" fill="#DB8F42"/>
<path d="M22.6296 15.4085C22.7526 15.4719 22.5317 15.1415 22.3703 15.1204C22.2993 15.1068 22.2258 15.1218 22.1657 15.162C22.1056 15.2023 22.0639 15.2647 22.0495 15.3355C22.2455 15.2911 22.4508 15.3169 22.6296 15.4085Z" fill="#183350"/>
<path d="M20.916 16.0193C20.8142 16.1134 20.9391 15.735 21.0889 15.6735C21.1537 15.6413 21.2286 15.6359 21.2973 15.6586C21.366 15.6813 21.4229 15.7301 21.4558 15.7945C21.2552 15.8041 21.0642 15.8836 20.916 16.0193Z" fill="#183350"/>
<path d="M22.2819 16.486C22.2915 16.6071 22.2531 16.7089 22.1954 16.7127C22.1378 16.7166 22.0802 16.6243 22.0706 16.5052C22.061 16.3861 22.0975 16.2843 22.157 16.2786C22.2166 16.2728 22.2703 16.3669 22.2819 16.486Z" fill="#183350"/>
<path d="M21.5192 16.5497C21.5308 16.6649 21.4923 16.761 21.4386 16.7667C21.3848 16.7725 21.3291 16.6822 21.3175 16.5747C21.306 16.4671 21.3444 16.3633 21.4001 16.3595C21.4559 16.3557 21.5096 16.4363 21.5192 16.5497Z" fill="#183350"/>
<path d="M22.8081 17.2043L21.3501 17.3964C21.3501 17.3964 21.7343 17.9843 22.0743 17.9074C22.4143 17.8306 22.8081 17.2043 22.8081 17.2043Z" fill="#FFF8ED"/>
<path d="M21.3694 13.2779C21.7747 13.9334 22.2781 14.5229 22.862 15.026C23.2616 15.3525 24.6427 16.3149 25.5514 15.6023C26.46 14.8896 24.3872 10.7364 21.3694 13.2779Z" fill="#3F468E"/>
<path d="M27.3648 24.1966C29.9716 23.7259 33.3102 22.4677 34.7049 21.2152C36.33 19.7447 37.5128 17.85 38.1204 15.7442L40.1835 8.75185C40.1835 8.75185 42.093 4.76004 41.947 4.63902C41.7069 4.43732 41.1613 5.45928 40.9231 5.93953C40.9221 5.94193 40.9206 5.9441 40.9188 5.94593C40.9169 5.94776 40.9147 5.9492 40.9123 5.95018C40.9099 5.95116 40.9073 5.95166 40.9047 5.95165C40.9021 5.95163 40.8996 5.9511 40.8972 5.9501C40.8948 5.94909 40.8926 5.94762 40.8908 5.94577C40.8889 5.94392 40.8875 5.94173 40.8865 5.93932C40.8855 5.93691 40.885 5.93433 40.8851 5.93173C40.8851 5.92913 40.8856 5.92656 40.8866 5.92416L41.3765 4.31438C41.5397 3.88408 41.267 3.95899 41.2381 4.02623L40.3468 5.82811C40.3442 5.8319 40.3404 5.83471 40.336 5.83613C40.3316 5.83755 40.3269 5.8375 40.3225 5.83597C40.3181 5.83445 40.3144 5.83154 40.3119 5.82769C40.3093 5.82384 40.3081 5.81927 40.3084 5.81467L40.7906 3.667C40.8482 3.28281 40.5812 3.44609 40.5581 3.50372L39.7455 5.52076C39.7448 5.52328 39.7435 5.52563 39.7419 5.52767C39.7402 5.52971 39.7382 5.5314 39.7358 5.53265C39.7335 5.5339 39.731 5.53468 39.7284 5.53495C39.7257 5.53521 39.7231 5.53496 39.7206 5.5342C39.718 5.53345 39.7157 5.5322 39.7137 5.53053C39.7116 5.52887 39.7099 5.52682 39.7087 5.5245C39.7074 5.52218 39.7066 5.51964 39.7064 5.51702C39.7061 5.5144 39.7064 5.51175 39.7071 5.50923C39.8262 5.01746 40.1067 4.02815 40.0433 3.64587C39.9991 3.36925 39.8743 3.55559 39.8301 3.60553C39.6245 3.83605 38.6871 6.81166 38.6871 6.81166C38.6871 6.81166 38.0973 5.25374 37.9187 5.52652C37.7977 5.70133 38.1492 6.58498 38.1857 7.47824C38.2088 8.05453 38.3778 8.11024 38.1857 8.6558L35.1659 15.5406C34.9307 16.0932 34.6062 16.6033 34.2054 17.0505C33.3275 18.011 31.7081 19.2539 29.0053 19.7188L27.3648 24.1966Z" fill="#FFC56B"/>
<path d="M35.5444 14.6531L35.1602 15.5463C34.925 16.0989 34.6005 16.609 34.1997 17.0562C33.3218 18.0167 31.7024 19.2596 28.9996 19.7245L27.3802 24.1965C29.987 23.7259 34.0172 23.2937 35.4137 22.0469C36.516 21.056 37.4167 19.8617 38.0666 18.5296C37.2188 17.2387 36.3781 15.9465 35.5444 14.6531Z" fill="#FF937E"/>
<path d="M23.3942 21.4539C23.2386 21.6037 22.4644 25.8395 22.4337 27.2649C22.3972 28.5596 23.617 30.6612 24.0838 33.0009C24.0838 33.0009 29.0784 35.3061 31.4104 34.215C31.5449 32.2133 31.1357 23.5439 29.8026 20.2302C29.8026 20.2302 28.6116 20.4108 27.9431 20.4569C27.9334 20.4569 23.9724 23.7648 23.3942 21.4539Z" fill="#FFC56B"/>
<path d="M23.5535 21.1789C23.4978 21.2308 22.9638 21.5151 22.8043 21.6054C22.497 22.6754 21.719 26.3348 21.694 27.2588C21.6575 28.5536 22.668 31.9614 22.9062 33.1927C22.9062 33.1927 25.2882 32.7106 32.7032 33.5347C33.1469 30.7954 31.7427 22.6677 30.4134 19.3521C30.4134 19.3521 27.8565 19.9648 27.2764 20.301C27.2841 20.301 23.59 30.5264 23.5535 21.1789Z" fill="#FF937E"/>
<g style="mix-blend-mode:multiply" opacity="0.5">
<g style="mix-blend-mode:multiply" opacity="0.5">
<path d="M31.6428 23.6052C30.0106 26.8929 28.133 30.0529 26.0258 33.0584C27.553 33.0834 29.7237 33.2025 32.7109 33.5348C33.0144 31.6599 32.4534 27.257 31.6428 23.6052Z" fill="#FF937E"/>
</g>
</g>
<path d="M77.3123 69.3458L77.0414 74.2866L71.8394 74.738L74.1637 72.4751L73.5529 69.2939L77.3123 69.3458Z" fill="#FF937E"/>
<path d="M76.6438 69.4626L76.3672 73.9193L77.1874 72.5496L77.2431 69.6893L76.6438 69.4626Z" fill="#E0603D"/>
<path d="M72.7807 73.5504L71.5935 74.6242C71.4648 74.7241 71.557 74.8913 71.7415 74.8932C71.7415 74.8932 77.8886 74.8605 77.8886 74.7779C77.9386 74.265 77.3334 72.4727 77.2451 71.9963C77.2316 71.9291 74.1581 74.655 73.7297 74.4936C73.4435 74.3976 72.8672 73.4889 72.7807 73.5504Z" fill="#8CD1B5"/>
<path d="M90.5018 69.3206L91.3528 74.3113L85.5418 74.7377L88.1735 72.3538L87.2553 69.6606L90.5018 69.3206Z" fill="#FF937E"/>
<path d="M89.1514 69.3553L90.8649 72.3539L91.299 72.5287L90.6862 69.167L89.1514 69.3553Z" fill="#E0603D"/>
<path d="M86.4349 73.5507L85.2478 74.6246C85.1191 74.7245 85.2113 74.8916 85.3957 74.8935C85.3957 74.8935 91.735 74.8609 91.7484 74.7783C91.7984 74.2654 91.3642 72.3828 91.2797 71.916C91.2662 71.8487 87.8123 74.6553 87.3858 74.5016C87.0977 74.3979 86.5214 73.4893 86.4349 73.5507Z" fill="#8CD1B5"/>
<path d="M83.2712 10.7844C83.2712 10.7844 82.9715 14.321 85.5956 16.605C87.724 18.4588 84.8387 20.7985 84.8387 20.7985C84.8387 20.7985 85.2363 22.4025 84.4718 22.8098C80.9045 24.7135 76.638 21.2307 75.9311 16.9124C74.1234 17.0795 74.9014 14.6379 75.9311 12.9494L83.2712 10.7844Z" fill="#FF616B"/>
<path d="M62.9529 13.2124C63.0624 13.0203 63.7578 13.8828 63.6637 13.6119C63.5696 13.3411 62.8377 12.2903 63.0202 12.1635C63.1719 12.0579 63.8673 13.3449 64.0229 13.2969C64.1785 13.2489 63.195 11.8792 63.2948 11.7601C63.5734 11.4105 64.3917 13.1471 64.6395 13.0357C64.6222 13.076 63.7789 11.618 64.0901 11.543C64.2342 11.5085 64.9008 12.5881 65.5078 13.6312C65.517 13.6476 65.5312 13.6608 65.5483 13.6686C65.5655 13.6764 65.5847 13.6786 65.6032 13.6747C65.6216 13.6709 65.6384 13.6612 65.6509 13.6471C65.6635 13.6331 65.6712 13.6154 65.673 13.5966C65.7364 13.0894 65.8094 12.5304 66.0476 12.7667C66.7084 14.924 66.574 15.5214 66.574 15.5214H66.5644L70.4428 22.3313C70.5754 22.5522 70.9 22.7001 71.0825 22.5061C71.6703 21.8818 75.8139 17.5115 75.7524 17.719C75.6583 18.0283 75.4489 23.5089 75.2338 23.3571C73.3128 27.0223 69.9414 26.8149 69.9414 26.8149C67.3289 25.4836 64.8009 16.2206 64.8009 16.2206H64.8124C64.3994 15.8019 62.8626 13.3968 62.9529 13.2124Z" fill="#FF937E"/>
<path d="M64.8029 16.2189C65.029 17.1481 65.2053 18.0888 65.3311 19.0369C66.2467 18.4587 67.1082 17.7991 67.9053 17.066L66.5606 15.5292H66.5702C66.5702 15.5292 66.7046 14.9318 66.0438 12.7745C65.8056 12.5382 65.7326 13.0973 65.6692 13.6044C65.6674 13.6232 65.6597 13.6409 65.6471 13.6549C65.6346 13.669 65.6178 13.6787 65.5994 13.6825C65.5809 13.6864 65.5617 13.6842 65.5445 13.6764C65.5274 13.6686 65.5132 13.6555 65.504 13.639C64.897 12.5959 64.2304 11.5163 64.0863 11.5509C63.7751 11.6258 64.6184 13.0876 64.6357 13.0435C64.386 13.1549 63.5677 11.4183 63.291 11.7679C63.1911 11.8928 64.1747 13.2644 64.0191 13.3047C63.8635 13.3451 63.1681 12.0657 63.0163 12.1713C62.8338 12.2981 63.5677 13.347 63.6599 13.6198C63.7521 13.8925 63.0586 13.0185 62.9491 13.2202C62.8396 13.4219 64.3975 15.8097 64.8105 16.2208L64.8029 16.2189Z" fill="#FFC56B"/>
<path d="M76.0098 17.4961C76.0098 17.4961 75.5372 16.6375 74.5614 17.4654C73.5855 18.2933 70.9537 22.2851 70.9537 22.2851L73.5259 26.7803L76.0098 17.4961Z" fill="#FFC56B"/>
<g style="mix-blend-mode:multiply">
<path d="M70.0183 26.8246L75.5142 17.7114C75.5142 17.7114 75.4105 22.3544 75.1531 23.2381C74.1964 26.5422 70.0183 26.8246 70.0183 26.8246Z" fill="#FFF8ED"/>
</g>
<path d="M65.6539 11.5893H64.3995C64.3097 11.5893 64.221 11.5688 64.1402 11.5295C64.0594 11.4902 63.9886 11.433 63.9331 11.3624C63.8777 11.2917 63.8389 11.2094 63.8199 11.1216C63.8008 11.0338 63.802 10.9428 63.8232 10.8555L64.5397 7.92985C64.5653 7.82061 64.627 7.72322 64.7149 7.65348C64.8028 7.58373 64.9116 7.54574 65.0238 7.54565C65.136 7.54574 65.2449 7.58373 65.3328 7.65348C65.4206 7.72322 65.4824 7.82061 65.5079 7.92985L66.2302 10.8651C66.2498 10.9518 66.2496 11.0417 66.2298 11.1283C66.21 11.2148 66.171 11.2959 66.1157 11.3654C66.0603 11.4349 65.9901 11.4911 65.9102 11.5298C65.8303 11.5686 65.7427 11.5889 65.6539 11.5893Z" fill="#FFC56B"/>
<path d="M65.0948 9.63599V13.7738" stroke="#020C2B" stroke-width="0.77" stroke-miterlimit="10" stroke-linecap="round"/>
<path d="M65.139 14.9723C64.7855 14.9723 64.507 14.7437 64.5281 14.4729L64.8143 12.3118H65.4655L65.7441 14.4729C65.7729 14.7437 65.4924 14.9723 65.139 14.9723Z" fill="#020C2B" stroke="#020C2B" stroke-width="0.66" stroke-miterlimit="10"/>
<path d="M77.7944 16.3824L76.0944 10.6732C76.0463 9.31701 76.2346 8.67732 76.5419 8.34499C77.3833 7.43636 78.0173 7.1924 79.1756 7.39794C84.3162 8.33731 83.9531 11.6087 81.8458 13.1609C80.6356 14.0426 77.7944 16.3824 77.7944 16.3824Z" fill="#FF616B"/>
<path d="M80.2147 11.6164C80.2169 11.6297 80.2219 11.6424 80.2294 11.6537C80.2368 11.6649 80.2467 11.6744 80.2581 11.6815C80.2696 11.6886 80.2825 11.6932 80.2959 11.6949C80.3093 11.6966 80.3229 11.6953 80.3358 11.6913C80.5644 11.6183 81.1253 11.5127 81.352 12.1216C81.5786 12.7306 80.8391 13.5047 80.428 13.2473C80.3377 13.1916 80.2474 13.3626 80.1975 13.4605C79.7377 14.4138 79.4026 15.4223 79.2005 16.4611C79.0084 17.3909 79.2773 18.6011 79.2773 18.6011C79.2773 18.6011 76.9721 18.3629 75.7293 17.9153C75.7293 17.9153 76.636 15.005 76.9606 14.1732C76.6091 14.0003 75.0492 14.0868 75.4911 11.432C75.8945 9.00386 77.2199 8.70803 77.6426 8.65808C77.9941 8.6139 79.6039 8.71571 80.2147 11.6164Z" fill="#FF937E"/>
<path d="M77.5774 14.3902C77.5189 14.4472 77.4462 14.4876 77.3669 14.5071C77.2876 14.5267 77.2044 14.5247 77.1261 14.5014C77.0478 14.4781 76.9771 14.4343 76.9214 14.3746C76.8657 14.3149 76.8269 14.2414 76.809 14.1616H77.8156L77.5755 14.3902" fill="#1E2046"/>
<path d="M80.3301 12.4614C80.5952 11.6008 81.1811 12.2367 81.1811 12.2367L80.3301 12.4614Z" fill="#D86859"/>
<path d="M77.9173 11.7313C77.7908 11.7272 77.6658 11.7607 77.5583 11.8277C77.4508 11.8946 77.3656 11.992 77.3134 12.1074C77.2613 12.2229 77.2446 12.3512 77.2655 12.4761C77.2864 12.601 77.3439 12.7169 77.4307 12.8091C77.5175 12.9014 77.6298 12.9657 77.7532 12.9941C77.8767 13.0224 78.0057 13.0135 78.1241 12.9685C78.2425 12.9234 78.3448 12.8442 78.4181 12.7409C78.4914 12.6376 78.5324 12.5149 78.5359 12.3883C78.5406 12.2192 78.4781 12.0553 78.3622 11.9321C78.2463 11.809 78.0863 11.7368 77.9173 11.7313Z" fill="#FF8169"/>
<path d="M75.4258 12.3804C75.5705 12.3552 75.7021 12.2809 75.7984 12.1699C75.8946 12.059 75.9496 11.9182 75.9541 11.7714C75.9541 11.5332 75.7447 11.3277 75.5545 11.2124C75.5545 11.2124 75.3201 11.9078 75.4258 12.3804Z" fill="#FF8169"/>
<path d="M75.8196 12.0178L76.8762 12.2752C76.8762 12.2752 76.492 12.7171 76.1961 12.5903C75.9003 12.4635 75.8196 12.0178 75.8196 12.0178Z" fill="white"/>
<path d="M77.7176 10.7961C77.8194 10.8998 77.708 10.5002 77.5562 10.4291C77.4045 10.3581 77.172 10.3216 77.1413 10.458C77.1106 10.5943 77.4736 10.5482 77.7176 10.7961Z" fill="black"/>
<path d="M75.7562 10.312C75.6237 10.3735 75.8715 10.0392 76.0386 10.0277C76.2057 10.0162 76.4228 10.0795 76.3632 10.264C76.3094 10.41 76.0732 10.1679 75.7562 10.312Z" fill="black"/>
<path d="M77.1125 11.42C77.0836 11.5429 77.0126 11.6294 76.9549 11.6121C76.8973 11.5948 76.8704 11.4891 76.8973 11.3662C76.9242 11.2432 76.9972 11.1568 77.0568 11.1741C77.1163 11.1914 77.1413 11.297 77.1125 11.42Z" fill="black"/>
<path d="M76.1617 11.2092C76.1348 11.3264 76.0675 11.4013 76.0099 11.4013C75.9523 11.4013 75.9292 11.2822 75.9561 11.165C75.983 11.0478 76.0522 10.9729 76.1079 10.9729C76.1636 10.9729 76.1886 11.092 76.1617 11.2092Z" fill="black"/>
<path d="M81.7152 9.8031C82.1186 10.3506 80.3705 8.61785 80.1227 8.87334C80.5588 8.98284 80.3725 10.656 80.3725 10.656C79.07 11.1862 79.1987 9.2902 79.2391 9.05968C76.2539 11.2189 76.4402 8.49683 76.7668 7.6151C77.3757 5.96305 80.2438 6.56816 81.6019 7.83793C82.1186 8.32202 81.235 9.15381 81.7152 9.8031Z" fill="#FF616B"/>
<path d="M76.3729 11.8254L75.9772 11.7408C76.1191 11.5433 76.2737 11.3553 76.4402 11.178L76.3729 11.8254Z" fill="#D86859"/>
<path d="M81.1677 17.0126C80.4646 16.8997 79.7747 16.7163 79.1084 16.4651C79.0661 16.5515 77.5332 17.8098 76.6783 17.5601C76.4862 17.5125 76.3171 17.3984 76.2011 17.2381C76.085 17.0777 76.0295 16.8815 76.0444 16.6841C76.1078 16.8493 73.355 20.186 73.0323 21.7862C72.7288 23.3 73.5452 28.0525 73.5452 28.6461H81.2291C81.2291 28.6461 81.8381 19.045 81.1677 17.0126Z" fill="#FFC56B"/>
<g style="mix-blend-mode:multiply">
<path d="M82.6487 19.0005L75.0493 28.8551L80.9774 28.9685C80.9774 28.9685 82.6948 21.0713 82.6487 19.0005Z" fill="#FFF8ED"/>
</g>
<path d="M85.415 25.3724C87.7432 24.5502 90.2578 24.6251 91.8368 24.2198C92.9721 23.4187 92.8492 23.5782 93.7425 23.0537C93.7425 23.0537 94.7029 22.4141 94.6146 22.852C94.5992 22.9423 93.5888 23.97 93.6848 23.9624C93.7809 23.9547 96.4357 23.6646 96.4645 23.9143C96.4933 24.1641 94.8125 24.1737 94.8278 24.2985C94.8432 24.4234 96.5317 24.2044 96.622 24.408C96.7123 24.6117 94.9834 24.7922 95.0583 24.8691C95.1332 24.9459 96.6892 24.6962 96.7411 24.8691C96.793 25.042 95.1025 25.2533 95.0814 25.3359C95.0602 25.4185 96.6182 25.1707 96.7642 25.3359C96.8756 25.4531 95.383 25.674 94.9508 25.8565C94.0528 26.2383 93.1251 26.5461 92.1769 26.7766C91.5333 27.18 84.977 29.8905 82.1301 29.3219C82.1301 29.3219 81.6499 28.6208 81.4309 26.7805L85.415 25.3724Z" fill="#FF937E"/>
<path d="M96.7642 25.3281C96.6143 25.1705 95.0584 25.4222 95.0814 25.3281C95.1045 25.2339 96.793 25.0245 96.7411 24.8613C96.6893 24.698 95.1313 24.9477 95.0584 24.8613C94.9854 24.7748 96.7104 24.6038 96.622 24.4002C96.5337 24.1966 94.8413 24.4156 94.8278 24.2907C94.8144 24.1659 96.4952 24.1563 96.4645 23.9065C96.4338 23.6568 93.7751 23.9469 93.6849 23.9546C93.5946 23.9622 94.5992 22.9345 94.6146 22.8442C94.6934 22.4062 93.7425 23.0459 93.7425 23.0459C92.8492 23.5704 92.9741 23.4109 91.8369 24.212C91.4411 24.3119 90.838 24.0026 90.3423 24.0641C90.4384 25.0361 90.5806 26.8668 90.7362 27.8311C91.4104 27.5564 92.0251 26.8476 92.1769 26.7534C93.122 26.5275 94.0471 26.2249 94.9431 25.8486C95.383 25.6662 96.8756 25.4452 96.7642 25.3281Z" fill="#FFC56B"/>
<path d="M85.6782 25.3936L81.2772 27.036C81.2772 27.036 77.562 17.7365 80.4416 17.0257C83.3211 16.315 85.6782 25.3936 85.6782 25.3936Z" fill="#FFC56B"/>
<path d="M72.7194 19.2115C72.8015 19.7217 73.0065 20.2043 73.3168 20.6176C73.5492 20.9269 73.8623 21.2208 74.2773 21.0844C74.4733 21.0052 74.651 20.8869 74.7998 20.7367C75.0245 20.5446 75.2435 20.3276 75.4587 20.1182C75.6738 19.9088 75.8429 19.734 76.035 19.5419C76.2225 19.3184 76.4345 19.1167 76.667 18.9406C77.2029 18.5987 77.8388 18.9041 78.2556 19.2883C78.6398 19.6379 78.9261 20.0759 79.3391 20.391C79.5032 20.5329 79.6956 20.6385 79.9036 20.7008C80.1115 20.763 80.3303 20.7805 80.5454 20.7521C80.9604 20.6695 81.2581 20.3525 81.4925 20.0202C82.0995 19.1558 82.6182 18.0685 83.7669 17.8572C83.8611 17.8399 83.8207 17.6958 83.7266 17.7131C82.9006 17.8649 82.3185 18.5084 81.8632 19.1711C81.6097 19.5419 81.408 19.9607 81.0948 20.2795C80.6799 20.6906 80.1343 20.7022 79.6445 20.414C78.8242 19.9318 78.4343 18.8619 77.4335 18.6659C77.246 18.6298 77.0527 18.6394 76.8697 18.6939C76.6868 18.7484 76.5198 18.8462 76.3827 18.979C75.9985 19.3229 75.6661 19.7205 75.2973 20.0778C75.0745 20.2911 74.8536 20.5081 74.6173 20.7079C74.308 20.9692 73.9738 21.0806 73.6568 20.7675C73.2397 20.3298 72.9709 19.772 72.8884 19.1731C72.8711 19.0789 72.727 19.1193 72.7443 19.2134L72.7194 19.2115Z" fill="#1E2046"/>
<path d="M71.4592 20.7213C71.7013 21.3559 71.9929 21.9706 72.3313 22.5596C72.6252 23.1082 72.988 23.6169 73.4109 24.0734C73.5944 24.2783 73.8171 24.4444 74.0659 24.5619C74.3147 24.6794 74.5845 24.7458 74.8593 24.7572C75.4664 24.7572 76.0119 24.4422 76.4864 24.083C76.7062 23.8888 76.9527 23.7271 77.2183 23.6027C77.4 23.5419 77.5928 23.5219 77.783 23.5442C77.9733 23.5664 78.1563 23.6304 78.319 23.7314C78.88 24.0388 79.2622 24.5632 79.7482 24.9685C80.1574 25.3086 80.6415 25.5583 81.189 25.4776C81.7653 25.3931 82.2609 25.0089 82.6797 24.6266C82.9467 24.3827 83.194 24.1181 83.4193 23.8352C83.6275 23.5249 83.8579 23.2302 84.1089 22.9534C84.6852 22.4117 85.4958 22.4924 86.222 22.5827C86.318 22.5942 86.3161 22.4444 86.222 22.4328C85.661 22.3637 85.054 22.2965 84.5161 22.5174C83.9783 22.7383 83.7055 23.232 83.3635 23.67C82.9589 24.2171 82.4584 24.6864 81.8863 25.055C81.6182 25.2382 81.3 25.3339 80.9753 25.3291C80.6507 25.3243 80.3354 25.2192 80.0729 25.0281C79.2507 24.4518 78.5054 23.1263 77.324 23.4145C76.7707 23.5489 76.3635 24.0426 75.8832 24.3096C75.2781 24.642 74.5962 24.7246 73.991 24.35C73.3859 23.9754 72.9787 23.3357 72.6175 22.744C72.2193 22.0888 71.8811 21.3989 71.6071 20.6828C71.5725 20.5925 71.4284 20.631 71.463 20.7213H71.4592Z" fill="#1E2046"/>
<path d="M81.1677 28.7688C81.5173 28.8475 83.3711 31.1546 84.1279 34.8602C84.4007 36.2049 85.3996 41.5664 87.2015 47.6405C89.7449 56.2504 91.4277 66.4162 91.639 69.8356C90.7073 70.0796 87.8354 70.2352 87.2457 70.1987C85.8683 65.7938 80.138 48.8623 77.6081 40.5886C77.5843 40.5003 77.5286 40.4241 77.4517 40.3746C77.3748 40.3251 77.2823 40.3059 77.1921 40.3207C77.1019 40.3355 77.0205 40.3834 76.9635 40.4549C76.9065 40.5264 76.8782 40.6165 76.8839 40.7077C76.8032 49.3925 77.7964 67.9569 77.3929 70.2217C76.9031 70.4906 73.5414 70.3658 72.9747 70.2889C72.3619 63.1083 67.5959 32.8893 73.7796 28.4576C76.8685 28.3923 78.9874 28.2751 81.1677 28.7688Z" fill="#8064A2"/>
<path d="M74.1964 28.5227C74.1964 28.5227 73.1534 28.7993 71.8144 34.2069C70.2219 40.6403 73.4281 70.3348 73.4281 70.3348" stroke="white" stroke-width="0.48" stroke-miterlimit="10"/>
<path d="M80.4934 28.45C80.4934 28.45 81.6076 31.2008 85.9701 47.5177C87.5069 53.2806 89.1609 60.1577 91.3143 69.949" stroke="white" stroke-width="0.48" stroke-miterlimit="10"/>
<path d="M72.7422 70.4252C72.6961 70.3791 72.5597 68.5234 72.5597 68.5234L77.7252 68.7482L77.4985 70.5155L72.7422 70.4252Z" fill="#B5E8D3"/>
<path d="M86.6041 68.7043L87.1477 70.3794L91.8138 70.0183L91.7235 68.2048L86.6041 68.7043Z" fill="#B5E8D3"/>
<g style="mix-blend-mode:multiply" opacity="0.28">
<path d="M73.7796 28.3808L83.8552 34.0189C83.8552 34.0189 83.471 31.0625 80.8411 28.377L73.7796 28.3808Z" fill="#8CD1B5"/>
</g>
<path d="M73.186 29.3489H81.3829V28.1867H73.186V29.3489Z" fill="#8CD1B5"/>
<path d="M57.9813 21.64C57.3605 21.0142 56.8914 20.2542 56.6103 19.4187C56.3293 18.5831 56.2436 17.6942 56.36 16.8203C56.6098 16.7819 56.8288 16.9778 57.0016 17.1642C57.5921 17.7589 58.0676 18.4577 58.404 19.2254C58.7399 20.0013 58.7742 20.8747 58.5 21.6746" fill="#8CD1B5"/>
<path d="M58.0986 21.6554C57.6407 21.1079 57.0704 20.6652 56.4264 20.3573C55.7825 20.0494 55.0798 19.8835 54.3661 19.8708C54.722 20.5586 55.2743 21.125 55.9529 21.4979C56.2923 21.6806 56.6666 21.7891 57.0511 21.8162C57.4356 21.8434 57.8214 21.7886 58.1832 21.6554" fill="#8CD1B5"/>
<path d="M61.1549 21.9418C60.9746 20.8732 60.9987 19.78 61.226 18.7203C61.4563 17.6561 62.0042 16.6868 62.7973 15.9407C62.8294 15.9028 62.8694 15.8724 62.9146 15.8518C62.9598 15.8312 63.0089 15.8209 63.0586 15.8216C63.3475 17.0446 63.321 18.321 62.9817 19.531C62.7378 20.3916 62.3075 21.2426 61.5679 21.744" fill="#8CD1B5"/>
<path d="M64.9239 20.9757C64.7645 21.6771 64.8221 22.4104 65.089 23.0784C65.3559 23.7463 65.8195 24.3174 66.4184 24.7158C66.6714 24.4022 66.8357 24.0265 66.8942 23.6278C66.9526 23.2292 66.9031 22.8221 66.7508 22.4491C66.5918 22.0789 66.3605 21.7442 66.0706 21.4645C65.7806 21.1847 65.4378 20.9657 65.0622 20.8201" fill="#8CD1B5"/>
<path d="M59.7986 17.6482C58.5711 16.899 57.4301 15.9597 56.6425 14.7552C55.8549 13.5507 55.4438 12.0658 55.7261 10.6443C57.614 11.5972 59.0598 13.2439 59.7602 15.2393C60.0176 15.9865 60.1559 16.8452 59.7852 17.5445" fill="#8CD1B5"/>
<path d="M61.881 21.7263C62.4573 21.0674 63.2257 20.2452 64.1862 20.5468C65.1909 20.8599 65.5808 21.951 65.8459 22.852C65.8567 22.8827 65.8786 22.9083 65.9074 22.9234C65.9362 22.9386 65.9697 22.9423 66.0012 22.9338C66.0326 22.9253 66.0596 22.9052 66.0768 22.8775C66.094 22.8498 66.1 22.8167 66.0937 22.7848C65.7998 21.7782 65.3561 20.6313 64.2554 20.2875C63.1911 19.9551 62.3344 20.7985 61.6928 21.5323C61.5852 21.6571 61.7658 21.8396 61.8753 21.7148L61.881 21.7263Z" fill="#5BC29C"/>
<path d="M59.7891 21.6418C60.7669 18.6028 59.2512 15.5849 57.8585 12.9532C57.7798 12.8072 57.5588 12.9359 57.6357 13.0819C58.9957 15.6541 60.496 18.6028 59.5413 21.5745C59.4894 21.7321 59.7334 21.7993 59.7891 21.6418Z" fill="#5BC29C"/>
<path d="M61.7677 30.0751H58.4578C58.0667 30.0754 57.6793 29.9985 57.3178 29.849C56.9563 29.6995 56.6279 29.4802 56.3512 29.2037C56.0745 28.9272 55.855 28.5988 55.7052 28.2375C55.5555 27.8761 55.4784 27.4888 55.4784 27.0976L56.8807 21.4749H63.122L64.7471 27.0976C64.7471 27.4888 64.6701 27.8761 64.5203 28.2375C64.3706 28.5988 64.1511 28.9272 63.8744 29.2037C63.5977 29.4802 63.2692 29.6995 62.9077 29.849C62.5463 29.9985 62.1589 30.0754 61.7677 30.0751Z" fill="#0096C8"/>
<path d="M57.772 23.0174C57.8164 23.0128 57.8576 22.9919 57.8875 22.9587C57.9174 22.9256 57.934 22.8825 57.934 22.8378C57.934 22.7931 57.9174 22.7501 57.8875 22.7169C57.8576 22.6837 57.8164 22.6628 57.772 22.6582C57.7276 22.6628 57.6864 22.6837 57.6565 22.7169C57.6266 22.7501 57.61 22.7931 57.61 22.8378C57.61 22.8825 57.6266 22.9256 57.6565 22.9587C57.6864 22.9919 57.7276 23.0128 57.772 23.0174Z" fill="#FCFCFC"/>
<path d="M59.9369 24.7999C59.9814 24.7953 60.0225 24.7744 60.0524 24.7412C60.0824 24.708 60.0989 24.665 60.0989 24.6203C60.0989 24.5756 60.0824 24.5325 60.0524 24.4994C60.0225 24.4662 59.9814 24.4453 59.9369 24.4407C59.8925 24.4453 59.8514 24.4662 59.8214 24.4994C59.7915 24.5325 59.775 24.5756 59.775 24.6203C59.775 24.665 59.7915 24.708 59.8214 24.7412C59.8514 24.7744 59.8925 24.7953 59.9369 24.7999Z" fill="#FCFCFC"/>
<path d="M57.1976 26.9032C57.2421 26.8986 57.2832 26.8777 57.3131 26.8445C57.343 26.8113 57.3596 26.7682 57.3596 26.7236C57.3596 26.6789 57.343 26.6358 57.3131 26.6026C57.2832 26.5695 57.2421 26.5485 57.1976 26.5439C57.1532 26.5485 57.112 26.5695 57.0821 26.6026C57.0522 26.6358 57.0356 26.6789 57.0356 26.7236C57.0356 26.7682 57.0522 26.8113 57.0821 26.8445C57.112 26.8777 57.1532 26.8986 57.1976 26.9032Z" fill="#FCFCFC"/>
<path d="M62.6129 23.0174C62.6573 23.0128 62.6985 22.9919 62.7284 22.9587C62.7583 22.9256 62.7749 22.8825 62.7749 22.8378C62.7749 22.7931 62.7583 22.7501 62.7284 22.7169C62.6985 22.6837 62.6573 22.6628 62.6129 22.6582C62.5685 22.6628 62.5273 22.6837 62.4974 22.7169C62.4675 22.7501 62.4509 22.7931 62.4509 22.8378C62.4509 22.8825 62.4675 22.9256 62.4974 22.9587C62.5273 22.9919 62.5685 23.0128 62.6129 23.0174Z" fill="#FCFCFC"/>
<path d="M63.2468 26.775C63.2912 26.7704 63.3323 26.7495 63.3623 26.7163C63.3922 26.6831 63.4087 26.6401 63.4087 26.5954C63.4087 26.5507 63.3922 26.5076 63.3623 26.4745C63.3323 26.4413 63.2912 26.4204 63.2468 26.4158C63.2023 26.4204 63.1612 26.4413 63.1313 26.4745C63.1013 26.5076 63.0848 26.5507 63.0848 26.5954C63.0848 26.6401 63.1013 26.6831 63.1313 26.7163C63.1612 26.7495 63.2023 26.7704 63.2468 26.775Z" fill="#FCFCFC"/>
<path d="M60.2559 29.1974C60.3003 29.1928 60.3415 29.1719 60.3714 29.1387C60.4013 29.1055 60.4179 29.0624 60.4179 29.0177C60.4179 28.9731 60.4013 28.93 60.3714 28.8968C60.3415 28.8636 60.3003 28.8427 60.2559 28.8381C60.2115 28.8427 60.1703 28.8636 60.1404 28.8968C60.1105 28.93 60.0939 28.9731 60.0939 29.0177C60.0939 29.0624 60.1105 29.1055 60.1404 29.1387C60.1703 29.1719 60.2115 29.1928 60.2559 29.1974Z" fill="#FCFCFC"/>
<path d="M56.218 24.6369C57.313 24.7906 58.0352 25.6819 58.4809 26.6271C58.9266 27.5722 59.33 28.8785 58.504 29.7506C58.4118 29.8466 58.5578 29.9926 58.65 29.8966C59.5067 28.9918 59.1763 27.6855 58.7268 26.6732C58.2638 25.6281 57.4782 24.6081 56.2737 24.4391C56.1431 24.4218 56.0816 24.6196 56.218 24.6312V24.6369Z" fill="#FCFCFC"/>
<path d="M60.229 21.6226C60.1938 22.1918 60.2726 22.7623 60.461 23.3006C60.6493 23.8389 60.9434 24.3341 61.3258 24.7572C61.7082 25.1803 62.1714 25.5226 62.688 25.7642C63.2046 26.0057 63.7643 26.1416 64.3341 26.1638C64.4667 26.1638 64.4667 25.9717 64.3341 25.9583C63.7912 25.9364 63.2582 25.806 62.7665 25.5749C62.2747 25.3437 61.8343 25.0164 61.471 24.6124C61.1078 24.2083 60.8291 23.7356 60.6514 23.2221C60.4737 22.7086 60.4006 22.1648 60.4365 21.6226C60.4365 21.4901 60.2444 21.4901 60.229 21.6226Z" fill="#FCFCFC"/>
<path d="M66.9371 30.0977H53.2385V31.742H66.9371V30.0977Z" fill="#A94846"/>
<path d="M54.3354 31.7422L69.1309 75.0316" stroke="#A94846" stroke-width="2" stroke-miterlimit="10"/>
<path d="M65.5693 31.7422L50.7739 75.0316" stroke="#A94846" stroke-width="2" stroke-miterlimit="10"/>
<path d="M139.301 69.8893L139.03 74.832L133.826 75.2834L136.152 73.0205L135.54 69.8394L139.301 69.8893Z" fill="#FF937E"/>
<path d="M138.63 70.0066L138.356 74.4633L139.176 73.0936L139.232 70.2352L138.63 70.0066Z" fill="#E0603D"/>
<path d="M134.767 74.0963L133.582 75.1701C133.451 75.27 133.544 75.4372 133.728 75.4391C133.728 75.4391 139.875 75.4064 139.875 75.3238C139.925 74.8109 139.32 73.009 139.232 72.5422C139.22 72.475 136.145 75.2009 135.716 75.0395C135.432 74.9435 134.854 74.0291 134.767 74.0963Z" fill="#45A2B9"/>
<path d="M136.673 7.50549C136.673 7.50549 136.237 8.91357 135.799 10.8538C135.618 11.6606 134.433 11.676 133.957 12.8439C133.519 13.9101 133.665 15.1241 133.519 15.8022C133.046 18.0094 131.385 15.9482 131.481 17.3064C131.577 18.6645 143.612 26.6174 147.94 18.8105C147.94 18.8105 148.084 17.3544 146.047 16.0942C144.011 14.834 144.057 15.1241 144.155 13.57C144.253 12.016 144.639 12.1159 142.989 10.2717C142.011 9.17867 142.311 7.79748 141.243 7.40944C140.175 7.0214 136.673 7.50549 136.673 7.50549Z" fill="#FFC56B"/>
<path d="M136.523 12.8035C136.523 12.8035 137.701 14.6188 137.303 17.7442C137.303 17.7442 138.129 24.6329 141.545 17.36L140.123 13.5699L136.523 12.8035Z" fill="#FF937E"/>
<path d="M140.411 13.6352C140.35 14.371 139.566 15.6503 138.874 15.635C138.039 15.6138 137.232 14.7129 137.209 13.4201C137.209 12.9091 138.575 12.8668 139.259 12.9245C139.943 12.9821 140.473 12.9014 140.411 13.6352Z" fill="#1E2046"/>
<path d="M141.948 12.2098L141.03 12.1003L141.151 11.0764L142.069 11.1859C142.137 11.194 142.202 11.2153 142.261 11.2487C142.32 11.2821 142.372 11.3268 142.414 11.3803C142.456 11.4339 142.487 11.4952 142.505 11.5607C142.524 11.6262 142.529 11.6947 142.52 11.7622C142.504 11.8974 142.434 12.0203 142.327 12.1042C142.219 12.1881 142.083 12.2261 141.948 12.2098Z" fill="#FF937E"/>
<path d="M135.941 11.2051L136.865 11.1936L136.878 12.2233L135.954 12.2367C135.818 12.2382 135.686 12.1855 135.588 12.0901C135.49 11.9947 135.434 11.8644 135.432 11.7276C135.43 11.5909 135.483 11.4592 135.579 11.3612C135.674 11.2633 135.804 11.2072 135.941 11.2051Z" fill="#FF937E"/>
<path d="M135.908 11.4802H136.292V11.9067H135.908C135.852 11.9072 135.797 11.8853 135.756 11.8457C135.716 11.8061 135.692 11.7521 135.691 11.6954C135.691 11.667 135.697 11.6388 135.708 11.6126C135.719 11.5864 135.735 11.5626 135.755 11.5426C135.775 11.5226 135.799 11.5068 135.825 11.4961C135.852 11.4854 135.88 11.48 135.908 11.4802Z" fill="#D9634C"/>
<path d="M142.048 11.4798L141.664 11.428L141.606 11.8487L141.99 11.9005C142.019 11.9043 142.048 11.9022 142.075 11.8945C142.103 11.8868 142.129 11.8736 142.151 11.8556C142.174 11.8377 142.192 11.8154 142.206 11.7901C142.219 11.7648 142.228 11.737 142.23 11.7084C142.235 11.6542 142.219 11.6001 142.185 11.5575C142.151 11.5149 142.102 11.4871 142.048 11.4798Z" fill="#D9634C"/>
<path d="M139.362 7.71658C141.126 7.92981 142.107 9.54151 141.892 11.305L141.875 11.4394C141.587 13.3297 140.025 14.8511 138.609 14.7243C137.194 14.5975 135.92 12.4191 136.129 10.6538L136.147 10.5193C136.36 8.75199 137.599 7.50335 139.362 7.71658Z" fill="#FF937E"/>
<path d="M138.847 13.3622H138.746C138.572 13.3567 138.407 13.2824 138.288 13.1556C138.169 13.0289 138.105 12.86 138.11 12.686L139.524 12.7283C139.521 12.8143 139.501 12.899 139.466 12.9774C139.43 13.0559 139.38 13.1265 139.317 13.1854C139.254 13.2443 139.18 13.2902 139.1 13.3205C139.019 13.3509 138.933 13.365 138.847 13.3622Z" fill="white"/>
<path d="M139.785 11.8796C139.785 12.016 139.71 12.1255 139.623 12.1236C139.537 12.1216 139.468 12.0102 139.47 11.8738C139.472 11.7374 139.545 11.626 139.631 11.628C139.718 11.6299 139.787 11.7413 139.785 11.8796Z" fill="#1E2046"/>
<path d="M138.427 11.8506C138.427 11.9889 138.352 12.0984 138.265 12.0965C138.179 12.0945 138.11 11.9831 138.112 11.8448C138.114 11.7065 138.187 11.5989 138.273 11.6009C138.36 11.6028 138.429 11.7142 138.427 11.8506Z" fill="#1E2046"/>
<path d="M139.028 12.4654H138.719C138.68 12.4654 138.655 12.4039 138.671 12.3501L138.851 11.7258C138.869 11.6643 138.922 11.6605 138.944 11.7258L139.068 12.3501C139.103 12.402 139.068 12.4654 139.028 12.4654Z" fill="#D9634C"/>
<path d="M137.824 12.4539C137.812 12.3813 137.78 12.3138 137.731 12.2597C137.681 12.2056 137.616 12.1674 137.545 12.15C137.474 12.1326 137.399 12.1367 137.33 12.1618C137.261 12.187 137.201 12.232 137.158 12.2912C137.115 12.3504 137.09 12.4211 137.087 12.4944C137.084 12.5677 137.102 12.6403 137.141 12.703C137.179 12.7656 137.235 12.8156 137.301 12.8465C137.368 12.8773 137.442 12.8878 137.514 12.8765C137.611 12.8604 137.697 12.8072 137.755 12.7282C137.813 12.6492 137.837 12.5507 137.824 12.4539Z" fill="#FF7C6B"/>
<path d="M140.767 12.594C140.761 12.5444 140.745 12.4965 140.72 12.4532C140.695 12.4098 140.662 12.3719 140.622 12.3418C140.583 12.3116 140.537 12.2897 140.489 12.2776C140.44 12.2654 140.39 12.2631 140.341 12.2709C140.291 12.2786 140.244 12.2963 140.202 12.3228C140.159 12.3492 140.123 12.384 140.094 12.4249C140.066 12.4659 140.046 12.5122 140.035 12.561C140.025 12.6099 140.025 12.6603 140.035 12.7093C140.053 12.8032 140.108 12.8863 140.186 12.9411C140.265 12.996 140.361 13.0182 140.456 13.0033C140.551 12.9884 140.636 12.9375 140.694 12.8612C140.752 12.7849 140.778 12.6892 140.767 12.594Z" fill="#FF7C6B"/>
<path d="M140.167 11.23C140.284 11.3299 140.131 10.9169 139.964 10.8458C139.928 10.829 139.889 10.8195 139.849 10.8179C139.809 10.8162 139.769 10.8225 139.732 10.8362C139.695 10.85 139.661 10.871 139.631 10.898C139.602 10.925 139.579 10.9575 139.562 10.9937C139.785 10.9985 140 11.0822 140.167 11.23Z" fill="#1E2046"/>
<path d="M137.731 10.9669C137.599 11.0438 137.829 10.6672 138.004 10.6384C138.082 10.6193 138.164 10.6317 138.233 10.6731C138.302 10.7145 138.352 10.7815 138.371 10.8593C138.152 10.8199 137.926 10.858 137.731 10.9669Z" fill="#1E2046"/>
<path d="M136.095 11.1531C136.095 11.1531 137.824 9.45492 137.935 8.88823C137.935 8.88823 137.643 10.2713 140.409 9.64125C141.258 9.44916 140.794 11.739 141.898 11.1454C141.898 11.1454 143.758 6.69254 138.825 6.53502C136.183 6.46202 135.778 8.59816 136.095 11.1531Z" fill="#FFC56B"/>
<path d="M141.479 22.2583C144.347 21.9779 148.078 20.8983 149.699 19.6708C151.595 18.2214 153.048 16.2713 153.895 14.0403L156.736 6.6388C156.736 6.6388 159.156 2.47986 159.008 2.33387C158.766 2.09375 158.086 3.15413 157.785 3.65359C157.783 3.65611 157.781 3.65836 157.779 3.66021C157.777 3.66205 157.775 3.66347 157.772 3.66436C157.769 3.66525 157.767 3.6656 157.764 3.6654C157.761 3.6652 157.758 3.66445 157.756 3.66319C157.753 3.66193 157.751 3.66018 157.749 3.65805C157.747 3.65592 157.746 3.65345 157.745 3.65077C157.744 3.6481 157.744 3.64527 157.744 3.64246C157.744 3.63965 157.745 3.6369 157.746 3.63438L158.418 1.93238C158.634 1.48095 158.332 1.54819 158.295 1.60774L157.16 3.48838C157.158 3.49304 157.153 3.49657 157.148 3.49826C157.143 3.49995 157.138 3.49967 157.133 3.49749C157.128 3.49531 157.124 3.49138 157.122 3.48649C157.12 3.48159 157.12 3.4761 157.122 3.47109L157.834 1.1832C157.929 0.772109 157.625 0.925788 157.596 0.991102L156.538 3.10418C156.524 3.12724 156.488 3.10418 156.496 3.08882C156.668 2.56631 157.06 1.51937 157.026 1.09868C157.001 0.79324 156.849 0.985339 156.797 1.03528C156.555 1.26772 155.276 4.41238 155.276 4.41238C155.276 4.41238 154.772 2.67004 154.546 2.94859C154.4 3.12916 154.703 4.11846 154.665 5.08856C154.64 5.71288 154.822 5.79356 154.557 6.36602L150.677 13.5659C150.369 14.1446 149.969 14.6689 149.492 15.118C148.456 16.0785 146.597 17.2887 143.619 17.5538L141.479 22.2583Z" fill="#FF937E"/>
<path d="M134.89 22.6504C126.204 24.6752 121.568 11.722 121.568 11.722L120.254 8.75212C120.254 8.75212 117.181 5.0427 117.309 4.87557C117.501 4.60087 118.354 5.53639 118.733 5.98014C118.75 6.00127 118.781 5.98014 118.767 5.95325L117.826 4.3838C117.542 3.97271 117.847 3.9804 117.895 4.04379L119.317 5.70736C119.32 5.7122 119.325 5.71563 119.33 5.71689C119.336 5.71815 119.342 5.71714 119.347 5.71408C119.351 5.71103 119.355 5.70617 119.356 5.70059C119.357 5.695 119.356 5.68915 119.353 5.68431L118.278 3.54433C118.116 3.16014 118.441 3.25618 118.47 3.30997L119.859 5.23096C119.876 5.25209 119.91 5.23096 119.897 5.20791C119.643 4.7219 119.084 3.7518 119.05 3.3311C119.027 3.02567 119.205 3.19087 119.265 3.23121C119.543 3.42331 121.317 6.31631 121.317 6.31631C121.317 6.31631 121.53 4.51635 121.799 4.75263C121.972 4.90631 121.833 5.93212 122.031 6.883C122.156 7.4958 121.989 7.60337 122.344 8.12588L124.92 11.9429C127.053 15.2086 130.993 18.8373 136.571 17.4234L137.084 17.3428L134.89 22.6504Z" fill="#FF937E"/>
<path d="M121.322 6.31055C121.322 6.31055 121.015 6.6448 121.165 7.3133" stroke="#A94846" stroke-width="0.12" stroke-miterlimit="10" stroke-linecap="round"/>
<path d="M120.162 5.2561C120.162 5.2561 119.175 5.6403 118.877 6.12439" stroke="#A94846" stroke-width="0.12" stroke-miterlimit="10" stroke-linecap="round"/>
<path d="M136.577 17.4176C134.554 17.9649 132.405 17.8022 130.487 16.9565C129.752 18.3877 127.99 20.0301 127.308 20.6544C128.958 22.7406 132.264 23.436 134.829 22.8386L137.255 17.0123L136.577 17.4176Z" fill="#FF616B"/>
<path d="M148.051 16.1924C146.699 16.9723 145.189 17.4372 143.633 17.5524L141.21 22.3453C143.542 23.4114 146.701 21.5346 148.614 20.4128C148.281 19.1084 148.381 17.4948 148.051 16.1924Z" fill="#FF616B"/>
<path d="M137.543 17.3329C137.351 17.4616 134.548 21.6974 134.22 23.2131C133.922 24.5904 135.438 29.0951 136.381 30.9643C136.381 30.9643 140.15 31.9516 142.858 31.2562C143.404 29.1432 144.47 21.2671 143.708 17.452C143.708 17.452 142.198 17.1197 141.475 17.0371C141.475 17.0371 137.697 19.9186 137.543 17.3329Z" fill="#FF937E"/>
<path d="M137.303 16.918C137.111 17.0467 134.141 21.7761 133.814 23.2918C133.517 24.6691 134.481 26.033 134.489 27.3989C134.489 27.3989 141.825 27.9502 144.534 27.2529C145.077 25.1398 144.566 21.1672 143.806 17.354C143.806 17.354 142.163 16.7931 141.475 17.0371C141.475 17.0371 137.935 20.6063 137.303 16.918Z" fill="#FF616B"/>
<g style="mix-blend-mode:multiply" opacity="0.5">
<g style="mix-blend-mode:multiply" opacity="0.5">
<path d="M140.079 27.6045C141.794 27.6045 143.5 27.518 144.534 27.2529C144.76 26.375 144.803 25.1725 144.726 23.7952C143.387 25.3011 141.818 26.5867 140.079 27.6045Z" fill="#FF616B"/>
</g>
</g>
<path d="M149.837 69.8643L151.069 74.8569L156.88 75.2833L153.485 72.7899L152.794 69.9373L149.837 69.8643Z" fill="#FF937E"/>
<path d="M151.188 69.9009L151.155 74.2308L150.683 73.6852L149.653 69.7107L151.188 69.9009Z" fill="#E0603D"/>
<path d="M155.986 74.0964L157.174 75.1702C157.302 75.2701 157.21 75.4373 157.026 75.4392C157.026 75.4392 150.686 75.4065 150.673 75.3239C150.623 74.811 150.521 73.7871 150.61 73.3223C150.623 73.255 154.609 75.201 155.028 75.0511C155.324 74.9436 155.9 74.0292 155.986 74.0964Z" fill="#45A2B9"/>
<path d="M143.005 28.9992C143.352 29.0779 145.358 31.6886 146.115 35.4057C146.387 36.7408 147.388 42.1118 149.188 48.1841C151.732 56.7939 153.414 66.9617 153.628 70.3811C152.694 70.625 149.822 70.7787 149.232 70.7441C147.857 66.3393 142.125 49.4077 139.595 41.1341C139.571 41.0461 139.515 40.9701 139.439 40.9207C139.362 40.8713 139.27 40.852 139.18 40.8665C139.09 40.8811 139.009 40.9285 138.951 40.9995C138.894 41.0705 138.866 41.1602 138.871 41.2512C138.79 49.9379 139.785 68.5023 139.38 70.7672C138.89 71.0361 135.538 70.9113 134.961 70.8344C134.347 63.6518 129.583 33.4347 135.766 29.003C138.857 28.9377 140.832 28.5055 143.005 28.9992Z" fill="#0096C8"/>
<path d="M136.183 29.0681C136.183 29.0681 135.14 29.3428 133.799 34.7523C132.209 41.1761 135.417 70.8803 135.417 70.8803" stroke="white" stroke-width="0.48" stroke-miterlimit="10"/>
<path d="M142.48 28.9954C142.48 28.9954 143.594 31.7462 147.959 48.0631C149.495 53.826 151.148 60.7031 153.303 70.4944" stroke="white" stroke-width="0.48" stroke-miterlimit="10"/>
<g style="mix-blend-mode:multiply" opacity="0.28">
<path d="M135.766 28.9226L145.842 34.5607C145.842 34.5607 145.442 31.612 142.83 28.9226H135.766Z" fill="#8CD1B5"/>
</g>
<path d="M145.137 6.96353C145.36 7.10761 145.354 7.51485 145.123 7.87408C144.893 8.2333 144.524 8.41003 144.299 8.25828C144.074 8.10652 144.084 7.70695 144.315 7.34773C144.545 6.9885 144.914 6.83098 145.137 6.96353Z" fill="#3F468E"/>
<path d="M147.017 5.88409C147.242 6.02624 147.234 6.43349 147.004 6.79464C146.773 7.15578 146.405 7.32867 146.182 7.17884C145.959 7.029 145.965 6.62751 146.195 6.26829C146.426 5.90906 146.787 5.74002 147.017 5.88409Z" fill="#3F468E"/>
<path d="M145.204 7.14984C145.158 7.08068 145.079 4.57188 145.079 4.57188L147.081 2.81226V6.14709" stroke="#3F468E" stroke-width="0.84" stroke-linecap="round" stroke-linejoin="round"/>
<path d="M124.525 27.7947C124.747 27.9369 124.742 28.3441 124.511 28.7053C124.281 29.0664 123.912 29.2393 123.689 29.0895C123.466 28.9396 123.472 28.5382 123.702 28.1789C123.933 27.8197 124.311 27.6507 124.525 27.7947Z" fill="#3F468E"/>
<path d="M126.407 26.7134C126.63 26.8575 126.622 27.2648 126.392 27.624C126.161 27.9832 125.792 28.158 125.57 28.0082C125.347 27.8583 125.353 27.4569 125.583 27.0976C125.814 26.7384 126.182 26.5694 126.407 26.7134Z" fill="#3F468E"/>
<path d="M124.592 27.9811C124.548 27.912 124.467 25.4031 124.467 25.4031L126.469 23.6416V26.9764" stroke="#3F468E" stroke-width="0.84" stroke-linecap="round" stroke-linejoin="round"/>
<path d="M148.827 24.051C148.827 23.8347 148.763 23.6231 148.644 23.443C148.524 23.263 148.353 23.1226 148.153 23.0396C147.953 22.9567 147.733 22.9349 147.521 22.977C147.309 23.0191 147.114 23.1232 146.961 23.2762C146.808 23.4292 146.704 23.6241 146.662 23.8363C146.62 24.0485 146.641 24.2685 146.724 24.4683C146.807 24.6681 146.948 24.8388 147.128 24.9587C147.308 25.0787 147.519 25.1425 147.736 25.1421C147.879 25.1421 148.021 25.1139 148.153 25.0591C148.286 25.0042 148.406 24.9239 148.507 24.8226C148.609 24.7212 148.689 24.6009 148.744 24.4686C148.799 24.3362 148.827 24.1943 148.827 24.051Z" fill="#3F468E"/>
<path d="M128.303 7.01964C128.906 7.01964 129.394 6.53113 129.394 5.92852C129.394 5.32591 128.906 4.8374 128.303 4.8374C127.701 4.8374 127.212 5.32591 127.212 5.92852C127.212 6.53113 127.701 7.01964 128.303 7.01964Z" fill="#3F468E"/>
<path d="M123.718 42.6092C124.32 42.6092 124.809 42.1207 124.809 41.5181C124.809 40.9155 124.32 40.427 123.718 40.427C123.115 40.427 122.627 40.9155 122.627 41.5181C122.627 42.1207 123.115 42.6092 123.718 42.6092Z" fill="#3F468E"/>
<path d="M154.94 51.9974C154.94 51.7816 154.876 51.5706 154.756 51.3912C154.636 51.2117 154.465 51.0719 154.266 50.9893C154.067 50.9067 153.847 50.8851 153.636 50.9272C153.424 50.9693 153.23 51.0732 153.077 51.2258C152.924 51.3784 152.82 51.5729 152.778 51.7845C152.736 51.9962 152.758 52.2155 152.84 52.4149C152.923 52.6143 153.063 52.7847 153.242 52.9046C153.422 53.0245 153.633 53.0885 153.849 53.0885C154.138 53.0885 154.415 52.9735 154.62 52.7689C154.825 52.5643 154.94 52.2868 154.94 51.9974Z" fill="#3F468E"/>
<path d="M159.961 7.67443C160.564 7.67443 161.052 7.18592 161.052 6.58331C161.052 5.9807 160.564 5.49219 159.961 5.49219C159.358 5.49219 158.87 5.9807 158.87 6.58331C158.87 7.18592 159.358 7.67443 159.961 7.67443Z" fill="#3F468E"/>
<path d="M135.057 14.2903C134.927 14.0664 134.733 13.8862 134.501 13.7725C134.268 13.6587 134.007 13.6165 133.75 13.6512C133.493 13.6859 133.253 13.7958 133.058 13.9673C132.864 14.1387 132.725 14.3638 132.659 14.6142C132.592 14.8646 132.602 15.1291 132.686 15.3742C132.77 15.6192 132.925 15.8339 133.13 15.991C133.336 16.1482 133.584 16.2407 133.843 16.257C134.101 16.2733 134.359 16.2126 134.583 16.0826C134.883 15.9076 135.102 15.6206 135.191 15.2846C135.28 14.9486 135.232 14.591 135.057 14.2903Z" fill="#1E2046"/>
<path d="M133.171 13.5934L133.121 13.6223C133.022 13.6799 132.988 13.8069 133.046 13.9059L134.373 16.1897C134.43 16.2888 134.557 16.3224 134.656 16.2649L134.706 16.2359C134.805 16.1784 134.839 16.0514 134.781 15.9523L133.454 13.6685C133.397 13.5694 133.27 13.5358 133.171 13.5934Z" fill="#272B4F"/>
<path d="M132.18 15.2516L131.711 15.5244L132.305 16.547L132.775 16.2742L132.18 15.2516Z" fill="#1E2046"/>
<path d="M132.906 16.244L129.94 17.8768C129.857 17.9224 129.761 17.9349 129.669 17.9117C129.578 17.8885 129.499 17.8314 129.448 17.752C129.395 17.6689 129.376 17.568 129.397 17.4715C129.418 17.375 129.477 17.2907 129.56 17.2371L132.416 15.4026L132.906 16.244Z" fill="#1E2046"/>
<path d="M131.773 72.7401V16.3611" stroke="#1E2046" stroke-width="2.28" stroke-miterlimit="10"/>
<path d="M125.272 75.7483L131.773 69.1497" stroke="#1E2046" stroke-width="2.28" stroke-miterlimit="10"/>
<path d="M138.371 75.7483L131.87 69.1497" stroke="#1E2046" stroke-width="2.28" stroke-miterlimit="10"/>
<path d="M132.445 13.839L130.493 12.064" stroke="#45A2B9" stroke-width="0.57" stroke-miterlimit="10" stroke-linecap="round"/>
<path d="M132.347 14.2984L129.717 14.0813" stroke="#45A2B9" stroke-width="0.57" stroke-miterlimit="10" stroke-linecap="round"/>
</g>
<defs>
<clipPath id="clip0_1_1254">
<rect width="160.556" height="75.9999" fill="white" transform="translate(0.496582)"/>
</clipPath>
</defs>
</svg>
