<svg width="134" height="71" viewBox="0 0 134 71" fill="none" xmlns="http://www.w3.org/2000/svg">
<path d="M34.9512 63.7432L36.1509 68.6077L29.7224 70.2148L32.5051 67.023L31.5401 64.3491L34.9512 63.7432Z" fill="#FF957D"/>
<path d="M36.2978 68.5384L29.448 70.7393C29.448 70.7393 29.3289 67.4595 32.4879 66.8726L33.3787 67.8272L35.7212 66.2131L36.2978 68.5384Z" fill="#FFC56B"/>
<path d="M31.5384 67.1902L32.4636 68.2794" stroke="#0D344F" stroke-width="0.86" stroke-miterlimit="10"/>
<path d="M31.1 67.4685L32.0253 68.556" stroke="#0D344F" stroke-width="0.86" stroke-miterlimit="10"/>
<path d="M31.1604 65.1965L35.4173 63.8189L27.3506 30.6975L18.1187 37.2382L31.1604 65.1965Z" fill="#1E2046"/>
<path d="M30.2144 63.1732L34.8321 61.4021" stroke="#FFF8ED" stroke-width="1.5" stroke-miterlimit="10"/>
<path d="M34.1503 61.6955C34.3379 62.4769 34.5272 63.2595 34.7183 64.0432C34.7476 64.1658 34.9341 64.114 34.9047 63.9914C34.716 63.2089 34.5267 62.4263 34.3368 61.6437C34.3074 61.5212 34.121 61.573 34.1503 61.6955Z" fill="#FFF8ED"/>
<path d="M33.3389 62.0374C33.553 62.813 33.7664 63.5893 33.9793 64.3661C33.9862 64.3908 34.0026 64.4118 34.025 64.4244C34.0473 64.437 34.0737 64.4403 34.0984 64.4334C34.1232 64.4265 34.1442 64.4101 34.1568 64.3878C34.1694 64.3654 34.1726 64.339 34.1658 64.3143C33.954 63.5375 33.7411 62.7612 33.5271 61.9856C33.5178 61.9636 33.5009 61.9456 33.4794 61.9352C33.4579 61.9247 33.4333 61.9225 33.4102 61.9288C33.3872 61.9352 33.3672 61.9497 33.3541 61.9697C33.341 61.9896 33.3356 62.0137 33.3389 62.0374Z" fill="#FFF8ED"/>
<path d="M32.424 62.3483L33.275 64.7374C33.3165 64.8548 33.5046 64.8048 33.4632 64.6856C33.1778 63.8893 32.8941 63.0929 32.6121 62.2965C32.569 62.1791 32.3808 62.2292 32.424 62.3483Z" fill="#FFF8ED"/>
<path d="M31.4885 62.7851L32.2187 65.0292C32.2584 65.1483 32.4465 65.0983 32.4068 64.9774L31.6766 62.7333C31.6369 62.6142 31.4505 62.666 31.4885 62.7851Z" fill="#FFF8ED"/>
<path d="M30.4993 63.1147C30.7116 63.6567 30.9378 64.1936 31.1656 64.7304C31.2226 64.8634 31.2796 64.998 31.3382 65.1309C31.3728 65.2103 31.4263 65.3036 31.5299 65.2863C31.7232 65.2552 31.6006 64.9324 31.4349 65.0705C31.3382 65.1517 31.4763 65.288 31.573 65.2086L31.5816 65.2L31.4867 65.2259C31.5402 65.1706 31.5523 65.1189 31.5212 65.0705L31.4902 64.9946C31.4729 64.9566 31.4574 64.9186 31.4401 64.8789L31.3262 64.6131C31.2537 64.4404 31.1812 64.2678 31.1104 64.0952C30.9654 63.7499 30.8244 63.4047 30.6875 63.0594C30.6426 62.9455 30.4544 62.9956 30.4993 63.1112V63.1147Z" fill="#FFF8ED"/>
<path d="M32.4292 62.2705L22.3462 34.5298" stroke="#FFF8ED" stroke-width="1.5" stroke-miterlimit="10"/>
<path d="M8.58459 65.5054L6.62703 69.9643L0.00170898 70.0368L3.44902 67.5769L5.1252 65.3035L8.58459 65.5054Z" fill="#FF957D"/>
<path d="M7.00337 70.1131L7.59202 67.8983L4.17578 69.1067L3.14004 67.8068C3.14004 67.8068 0.630079 66.6416 0 70.051L7.00337 70.1131Z" fill="#FFC56B"/>
<path d="M2.71553 68.6438L2.17694 67.646" stroke="#0D344F" stroke-width="0.86" stroke-miterlimit="10"/>
<path d="M2.24922 68.6714L1.71063 67.6736" stroke="#0D344F" stroke-width="0.86" stroke-miterlimit="10"/>
<path d="M4.37256 65.3642L18.3914 27.43V26.2217L25.5294 26.1025C25.5138 26.6308 29.7397 31.1535 26.3269 35.022C21.9353 41.0449 9.03169 65.6352 9.03169 65.6352L4.37256 65.3642Z" fill="#0096C8"/>
<path d="M23.1454 29.2581C23.1454 29.2581 23.9671 33.71 22.5965 35.5606C21.2258 37.4111 7.66101 63.2391 7.66101 63.2391" stroke="#FFF8ED" stroke-width="1.5" stroke-miterlimit="10"/>
<path d="M5.12518 63.0334L10.6077 63.2389" stroke="#FFF8ED" stroke-width="1.5" stroke-miterlimit="10"/>
<path d="M9.92248 63.239L8.75726 65.6368" stroke="#FFF8ED" stroke-width="1.5" stroke-miterlimit="10"/>
<path d="M8.62078 63.239L7.45557 65.6368" stroke="#FFF8ED" stroke-width="1.5" stroke-miterlimit="10"/>
<path d="M7.31927 63.239L6.15405 65.6368" stroke="#FFF8ED" stroke-width="1.5" stroke-miterlimit="10"/>
<path d="M6.01603 63.239L4.85254 65.6368" stroke="#FFF8ED" stroke-width="1.5" stroke-miterlimit="10"/>
<path d="M11.7229 14.1275C11.7229 14.1275 13.4491 26.3217 16.3561 24.6818C18.2032 23.646 18.6279 21.3501 18.8005 21.017C18.8005 20.4559 18.8005 20.0658 18.8195 19.9812C18.8195 19.9812 19.8241 16.779 20.7684 15.6C20.872 15.4723 21.8214 13.4042 21.78 13.3939C18.9161 12.6654 17.0932 14.7835 16.7497 19.3356C16.7393 19.4772 14.1862 12.9675 14.1862 12.9675C14.2605 12.674 14.8577 10.5853 14.3796 10.839C13.9014 11.0928 13.9722 11.5727 13.8255 11.6815C13.6787 11.7902 13.4319 8.45684 13.0676 8.55868C12.5498 8.70369 13.1315 10.8028 12.8018 10.6129C12.4721 10.423 12.3392 8.49999 12.0405 8.59148C11.5623 8.73649 12.3236 10.7579 12.1044 10.7562C11.8852 10.7545 11.716 8.91602 11.3776 8.99197C10.8995 9.10072 11.6607 11.3414 11.4053 11.1947C11.1498 11.0479 10.934 9.76015 10.7148 9.87063C10.4955 9.98111 11.7229 14.1275 11.7229 14.1275Z" fill="#FF937E"/>
<path d="M13.4077 9.00006L13.7771 9.79413C13.9596 10.1844 14.2895 10.4864 14.6944 10.6336C15.0993 10.7809 15.5461 10.7614 15.9367 10.5796C16.3261 10.3962 16.6268 10.0658 16.7727 9.66088C16.9187 9.25598 16.898 8.8097 16.7152 8.42004L16.3458 7.62769C16.2556 7.43428 16.1282 7.26053 15.9709 7.11637C15.8135 6.97221 15.6293 6.86047 15.4288 6.78753C15.2282 6.71459 15.0153 6.68188 14.8021 6.69127C14.5889 6.70066 14.3796 6.75197 14.1863 6.84225C13.7973 7.02563 13.4969 7.35575 13.351 7.76024C13.2051 8.16473 13.2254 8.61058 13.4077 9.00006Z" fill="#FF616B"/>
<path d="M7.41416 11.759L7.78357 12.5514C7.87374 12.7448 8.00114 12.9185 8.15849 13.0627C8.31584 13.2069 8.50005 13.3186 8.7006 13.3915C8.90114 13.4645 9.1141 13.4972 9.32729 13.4878C9.54049 13.4784 9.74974 13.4271 9.9431 13.3368C10.1364 13.2468 10.3102 13.1196 10.4543 12.9624C10.5984 12.8052 10.7102 12.6211 10.7831 12.4207C10.8561 12.2203 10.8888 12.0075 10.8794 11.7944C10.8701 11.5814 10.8188 11.3722 10.7285 11.179L10.3591 10.3849C10.1767 9.99464 9.84675 9.69271 9.44185 9.54545C9.03696 9.39818 8.59017 9.41763 8.19959 9.5995C8.00618 9.68967 7.83243 9.81707 7.68827 9.97442C7.54412 10.1318 7.43237 10.316 7.35943 10.5165C7.28649 10.7171 7.25378 10.93 7.26317 11.1432C7.27256 11.3564 7.32387 11.5657 7.41416 11.759Z" fill="#FF616B"/>
<path d="M9.69947 10.5708L10.4122 12.0994L14.8288 10.0399L14.1161 8.51135L9.69947 10.5708Z" fill="#FF616B"/>
<path d="M17.9099 24.1294L18.4105 26.2941L25.4915 26.2113L26.075 23.5874L17.9099 24.1294Z" fill="#FF7859"/>
<path d="M17.3591 9.34895L18.0013 7.42419C17.7527 7.00298 18.3465 5.39067 18.6331 4.99709C19.4393 3.92337 19.7448 2.80476 21.0619 2.53374C22.5776 2.22302 24.687 2.67357 25.2757 4.13915C25.5174 4.73125 28.2621 7.21013 27.3006 8.81381" fill="#3F468E"/>
<path d="M23.1576 6.86542C23.1632 6.87966 23.1717 6.89262 23.1825 6.90351C23.1932 6.91439 23.2061 6.923 23.2203 6.9288C23.2345 6.9346 23.2497 6.93748 23.265 6.93727C23.2803 6.93706 23.2954 6.93376 23.3095 6.92757C23.5563 6.82054 24.107 6.52018 24.4678 7.13472C24.8286 7.74926 24.3659 8.3966 23.9982 8.57958C23.8929 8.63137 23.653 8.76257 23.6116 8.87477C23.4924 9.22002 24.3901 11.5902 24.5057 12.3273C24.7595 13.9758 25.3067 13.2439 25.3067 13.2439C25.3067 13.2439 20.3559 16.4737 20.3818 14.3884C20.4094 12.0545 20.5354 10.3697 20.5078 10.3662C19.4634 10.2143 18.69 10.5579 18.3482 7.73027C18.0323 5.10983 19.8086 4.54018 20.2765 4.4297C20.67 4.34511 21.9751 3.8773 23.1576 6.86542Z" fill="#FF937E"/>
<path d="M24.2675 7.44484C24.2675 7.44484 23.5218 6.78887 23.501 8.10599L24.2675 7.44484Z" fill="#D95A4E"/>
<path d="M20.6615 7.7853C20.545 7.8328 20.4452 7.91381 20.3749 8.01806C20.3045 8.12231 20.2666 8.2451 20.2661 8.37089C20.2656 8.49667 20.3024 8.61977 20.3719 8.7246C20.4415 8.82943 20.5405 8.91126 20.6566 8.95972C20.7727 9.00819 20.9005 9.0211 21.0239 8.99683C21.1474 8.97256 21.2608 8.9122 21.3499 8.82339C21.439 8.73459 21.4997 8.62134 21.5243 8.49799C21.549 8.37465 21.5364 8.24676 21.4883 8.13055C21.4237 7.9757 21.3007 7.85259 21.1459 7.78795C20.991 7.72331 20.817 7.72235 20.6615 7.7853Z" fill="#FF7859"/>
<path d="M18.6624 9.06261C18.7699 8.99103 18.853 8.8884 18.9006 8.7684C18.9483 8.6484 18.9583 8.51673 18.9292 8.39092C18.9001 8.26511 18.8334 8.15115 18.738 8.06421C18.6425 7.97727 18.5228 7.92149 18.3948 7.9043C18.3948 7.9043 18.4242 8.65694 18.6624 9.06261Z" fill="#FF7859"/>
<path d="M18.873 8.5983L19.9536 8.53442C19.9536 8.53442 19.7137 9.06956 19.3978 9.03331C19.0819 8.99706 18.873 8.5983 18.873 8.5983Z" fill="white"/>
<path d="M19.2304 7.96631L19.403 8.43067L19.1492 8.46692C19.1386 8.46847 19.1277 8.46723 19.1177 8.46332C19.1077 8.45941 19.0988 8.45296 19.092 8.44461C19.0853 8.43626 19.0808 8.42629 19.079 8.41567C19.0772 8.40506 19.0782 8.39416 19.0819 8.38406L19.2304 7.96631Z" fill="#D95A4E"/>
<path d="M20.1676 7.10493C20.2919 7.17916 20.0847 6.82183 19.9207 6.79076C19.8487 6.77218 19.7722 6.78255 19.7077 6.81965C19.6431 6.85675 19.5957 6.91764 19.5755 6.98927C19.7803 6.95734 19.9899 6.99827 20.1676 7.10493Z" fill="black"/>
<path d="M18.3257 7.17778C18.2135 7.26754 18.3689 6.88604 18.526 6.83253C18.5949 6.80312 18.6726 6.80224 18.7422 6.83006C18.8118 6.85789 18.8675 6.91216 18.8971 6.98099C18.6894 6.97726 18.4871 7.04695 18.3257 7.17778Z" fill="black"/>
<path d="M20.3713 10.3592C20.8199 10.3152 21.2584 10.1986 21.6695 10.0139C21.4882 10.9305 20.7874 10.9858 20.3713 10.3592Z" fill="#1E2046"/>
<path d="M20.5491 13.2349C20.2142 13.1244 19.6757 13.4299 19.7533 13.3592C18.6831 15.0215 17.3987 17.4763 17.2986 19.0558C17.1778 20.9909 17.2848 23.758 17.2848 23.758C17.3228 23.9997 25.1686 24.1413 27.026 24.036C28.1601 20.8769 28.2068 18.0891 27.6267 15.6102C27.6267 15.6102 27.6992 15.2839 26.7239 14.1947C26.515 13.9616 24.6749 12.0835 24.5644 11.9402C24.5644 11.9367 18.6347 16.3162 20.5491 13.2349Z" fill="#3F468E"/>
<path d="M19.3047 16.639H19.3789C19.4508 16.639 19.5197 16.6104 19.5705 16.5596C19.6214 16.5088 19.6499 16.4398 19.6499 16.3679C19.6499 16.2961 19.6214 16.2271 19.5705 16.1763C19.5197 16.1255 19.4508 16.0969 19.3789 16.0969H19.3047C19.2328 16.0969 19.1638 16.1255 19.113 16.1763C19.0622 16.2271 19.0336 16.2961 19.0336 16.3679C19.0336 16.4398 19.0622 16.5088 19.113 16.5596C19.1638 16.6104 19.2328 16.639 19.3047 16.639H19.3789C19.4508 16.639 19.5197 16.6104 19.5705 16.5596C19.6214 16.5088 19.6499 16.4398 19.6499 16.3679C19.6499 16.2961 19.6214 16.2271 19.5705 16.1763C19.5197 16.1255 19.4508 16.0969 19.3789 16.0969H19.3047C19.2328 16.0969 19.1638 16.1255 19.113 16.1763C19.0622 16.2271 19.0336 16.2961 19.0336 16.3679C19.0336 16.4398 19.0622 16.5088 19.113 16.5596C19.1638 16.6104 19.2328 16.639 19.3047 16.639Z" fill="#FFF8ED"/>
<path d="M21.3468 19.4029C21.4186 19.4029 21.4876 19.3743 21.5384 19.3235C21.5892 19.2727 21.6178 19.2037 21.6178 19.1319C21.6178 19.06 21.5892 18.991 21.5384 18.9402C21.4876 18.8894 21.4186 18.8608 21.3468 18.8608C21.2749 18.8608 21.206 18.8894 21.1551 18.9402C21.1043 18.991 21.0757 19.06 21.0757 19.1319C21.0757 19.2037 21.1043 19.2727 21.1551 19.3235C21.206 19.3743 21.2749 19.4029 21.3468 19.4029Z" fill="#FFF8ED"/>
<path d="M18.3413 20.0069C18.4097 20.0014 18.4735 19.9704 18.52 19.9201C18.5666 19.8697 18.5924 19.8036 18.5924 19.735C18.5924 19.6664 18.5666 19.6004 18.52 19.55C18.4735 19.4996 18.4097 19.4686 18.3413 19.4631C18.273 19.4686 18.2092 19.4996 18.1626 19.55C18.1161 19.6004 18.0903 19.6664 18.0903 19.735C18.0903 19.8036 18.1161 19.8697 18.1626 19.9201C18.2092 19.9704 18.273 20.0014 18.3413 20.0069Z" fill="#FFF8ED"/>
<path d="M22.0665 15.4375C22.1384 15.4375 22.2073 15.409 22.2581 15.3582C22.309 15.3073 22.3375 15.2384 22.3375 15.1665C22.3375 15.0946 22.309 15.0257 22.2581 14.9749C22.2073 14.9241 22.1384 14.8955 22.0665 14.8955C21.9946 14.8955 21.9257 14.9241 21.8749 14.9749C21.824 15.0257 21.7955 15.0946 21.7955 15.1665C21.7955 15.2384 21.824 15.3073 21.8749 15.3582C21.9257 15.409 21.9946 15.4375 22.0665 15.4375Z" fill="#FFF8ED"/>
<path d="M19.5116 7.92339C19.5306 8.0684 19.591 8.1806 19.648 8.17197C19.705 8.16334 19.736 8.04078 19.717 7.89577C19.698 7.75077 19.6376 7.63856 19.5807 7.64719C19.5237 7.65583 19.4926 7.77148 19.5116 7.92339Z" fill="black"/>
<path d="M18.7297 7.92323C18.7487 8.06823 18.8091 8.18044 18.8661 8.17353C18.9231 8.16663 18.9541 8.04234 18.9351 7.89734C18.9162 7.75233 18.854 7.64013 18.7988 7.64703C18.7435 7.65394 18.7107 7.77477 18.7297 7.92323Z" fill="black"/>
<path d="M22.5948 7.24472C21.4745 6.66125 21.0999 4.95745 21.0999 4.95745L18.2879 6.28838C18.2879 6.28838 17.5283 3.90789 18.9162 3.65586C18.9691 3.34838 19.1184 3.06566 19.3424 2.84848C19.5664 2.6313 19.8536 2.49089 20.1626 2.44749C20.4916 2.38544 20.8308 2.40355 21.1514 2.5003C21.472 2.59706 21.7646 2.7696 22.0045 3.00334C22.0045 3.00334 23.6651 4.38434 23.3233 6.50762C23.3233 6.53524 23.3147 6.56286 23.3095 6.59048C23.3095 6.59911 23.4769 7.7039 22.5948 7.24472Z" fill="#3F468E"/>
<path d="M13.6805 20.8997L14.554 20.9135C14.7673 20.9171 14.9793 20.8787 15.1778 20.8005C15.3762 20.7222 15.5574 20.6056 15.7108 20.4573C15.8642 20.309 15.9869 20.132 16.0718 19.9363C16.1568 19.7406 16.2024 19.53 16.206 19.3167C16.2097 19.1034 16.1713 18.8914 16.093 18.6929C16.0147 18.4944 15.8981 18.3133 15.7498 18.1599C15.6015 18.0065 15.4245 17.8838 15.2288 17.7988C15.0331 17.7139 14.8226 17.6683 14.6092 17.6647L13.734 17.6509C13.5208 17.6472 13.3089 17.6856 13.1105 17.7639C12.9121 17.8422 12.7311 17.9589 12.5779 18.1072C12.4246 18.2555 12.3021 18.4325 12.2173 18.6282C12.1325 18.8239 12.0871 19.0344 12.0837 19.2476C12.0801 19.461 12.1185 19.6729 12.1968 19.8714C12.275 20.0699 12.3916 20.251 12.5399 20.4044C12.6882 20.5578 12.8652 20.6805 13.0609 20.7655C13.2567 20.8505 13.4672 20.8961 13.6805 20.8997Z" fill="#FF616B"/>
<path d="M13.5355 27.4954L14.4107 27.5092C14.8412 27.5161 15.2569 27.3518 15.5664 27.0524C15.8758 26.753 16.0537 26.3429 16.061 25.9124C16.0646 25.6991 16.0262 25.4871 15.948 25.2886C15.8697 25.0902 15.7531 24.909 15.6048 24.7556C15.4565 24.6022 15.2795 24.4795 15.0838 24.3945C14.8881 24.3096 14.6775 24.264 14.4642 24.2604L13.5907 24.2466C13.3774 24.2429 13.1654 24.2813 12.967 24.3596C12.7685 24.4379 12.5874 24.5545 12.434 24.7027C12.2805 24.851 12.1578 25.0281 12.0729 25.2238C11.9879 25.4195 11.9423 25.63 11.9387 25.8434C11.9351 26.0567 11.9735 26.2686 12.0517 26.4671C12.13 26.6656 12.2466 26.8467 12.3949 27.0001C12.5432 27.1535 12.7202 27.2762 12.9159 27.3612C13.1116 27.4462 13.3222 27.4918 13.5355 27.4954Z" fill="#FF616B"/>
<path d="M13.5555 24.8361L15.2421 24.8699L15.3395 19.9967L13.653 19.963L13.5555 24.8361Z" fill="#FF616B"/>
<path d="M16.8636 24.2845C16.8636 24.2845 21.9802 27.1052 25.3032 25.8934C26.0869 25.6068 26.5444 25.1079 26.6842 24.2845C27.1261 21.6503 27.8926 16.5164 27.6734 16.3024C27.2349 12.8499 24.5023 13.8097 24.1794 14.716C23.104 17.73 23.4441 20.9529 23.2525 22.0093L16.5201 21.8143C16.2836 21.6693 14.6212 20.5817 14.7127 21.0685C14.8042 21.5553 15.241 21.6227 15.2979 21.7815C15.3549 21.9403 13.1919 21.5415 13.1833 21.8868C13.1695 22.3753 14.1569 22.232 14.0982 22.3149C14.0395 22.3977 13.1574 21.9696 13.1539 22.2579C13.1539 22.7154 14.112 22.8017 14.112 22.888C14.112 22.926 13.2799 22.3701 13.2489 22.6877C13.2143 23.1348 14.2846 23.3782 14.0637 23.2298C14.0222 23.2022 13.1488 22.7119 13.3214 23.159C13.4025 23.3696 16.8636 24.2845 16.8636 24.2845Z" fill="#FF937E"/>
<path d="M14.0792 23.1519L13.3646 22.9724" stroke="#FF7859" stroke-width="0.5" stroke-miterlimit="10" stroke-linecap="round"/>
<path d="M14.0999 22.838L13.3853 22.6584" stroke="#FF7859" stroke-width="0.5" stroke-miterlimit="10" stroke-linecap="round"/>
<path d="M14.0724 22.3443L13.3577 22.1648" stroke="#FF7859" stroke-width="0.5" stroke-miterlimit="10" stroke-linecap="round"/>
<path d="M131.81 64.4197L132.526 66.6413C132.526 66.6413 131.879 69.4638 131.411 68.5143C131.096 67.9207 130.578 67.4609 129.951 67.2196L128.559 64.5284L131.81 64.4197Z" fill="#753231"/>
<path d="M128.623 64.6512L131.451 64.6201L131.173 67.6721L129.771 67.0282L128.623 64.6512Z" fill="#A94846"/>
<path d="M129.714 67.0278L126.363 69.1787C126.213 69.2754 126.293 69.4791 126.481 69.4808C128.021 69.4808 132.177 69.467 133.258 69.4601C133.286 69.4632 133.315 69.4593 133.341 69.4488C133.367 69.4383 133.391 69.4214 133.409 69.3997C133.427 69.3781 133.44 69.3523 133.446 69.3246C133.452 69.2968 133.451 69.2681 133.443 69.2409C133.217 68.6488 132.599 66.9968 132.528 66.5462C132.516 66.4651 131.57 67.8219 131.118 67.6717C130.727 67.544 129.802 66.9484 129.714 67.0278Z" fill="#5BC29C"/>
<path d="M129.566 67.2268L130.128 67.5962C130.188 67.6352 130.238 67.6879 130.273 67.7499C130.308 67.812 130.328 67.8816 130.331 67.9529C130.334 68.0242 130.32 68.0952 130.29 68.1599C130.26 68.2246 130.214 68.2811 130.158 68.3247V68.3247C130.084 68.3813 129.995 68.4137 129.902 68.4174C129.809 68.4211 129.718 68.396 129.64 68.3454L128.818 67.8051" stroke="white" stroke-width="1.6" stroke-miterlimit="10" stroke-linecap="round"/>
<path d="M133.099 70.6533H126.659C126.543 70.6533 126.433 70.6075 126.351 70.5259C126.269 70.4443 126.224 70.3337 126.224 70.2183V69.6486C126.224 69.5914 126.246 69.5365 126.287 69.4961C126.327 69.4556 126.382 69.4329 126.439 69.4329H133.319C133.376 69.4329 133.431 69.4556 133.471 69.4961C133.512 69.5365 133.534 69.5914 133.534 69.6486V70.2183C133.534 70.3337 133.488 70.4443 133.407 70.5259C133.325 70.6075 133.215 70.6533 133.099 70.6533Z" fill="#5BC29C"/>
<path d="M119.208 64.4197L119.279 66.6413C119.279 66.6413 118.621 69.4638 118.153 68.5143C117.839 67.9207 117.32 67.4609 116.693 67.2196L115.975 64.4249L119.208 64.4197Z" fill="#753231"/>
<path d="M116.072 64.6511H118.072L117.858 67.672L116.457 67.0282L116.072 64.6511Z" fill="#A94846"/>
<path d="M116.457 67.0278L113.106 69.1787C112.956 69.2754 113.035 69.4791 113.222 69.4808C114.761 69.4808 118.91 69.467 120.001 69.4601C120.029 69.4629 120.057 69.4588 120.083 69.4481C120.109 69.4374 120.132 69.4206 120.15 69.3989C120.168 69.3773 120.181 69.3516 120.187 69.3241C120.192 69.2965 120.191 69.268 120.184 69.2409C119.957 68.6488 119.339 66.9968 119.27 66.5462C119.258 66.4651 118.312 67.8219 117.858 67.6717C117.468 67.544 116.545 66.9484 116.457 67.0278Z" fill="#5BC29C"/>
<path d="M119.913 70.6533H113.472C113.357 70.6533 113.246 70.6075 113.164 70.5259C113.083 70.4443 113.037 70.3337 113.037 70.2183V69.6486C113.037 69.5914 113.06 69.5365 113.1 69.4961C113.141 69.4556 113.195 69.4329 113.253 69.4329H120.132C120.189 69.4329 120.244 69.4556 120.284 69.4961C120.325 69.5365 120.348 69.5914 120.348 69.6486V70.2183C120.348 70.3337 120.302 70.4443 120.22 70.5259C120.139 70.6075 120.028 70.6533 119.913 70.6533Z" fill="#5BC29C"/>
<path d="M116.308 67.2268L116.871 67.5962C116.93 67.6353 116.98 67.6881 117.015 67.7503C117.05 67.8124 117.07 67.882 117.073 67.9533C117.075 68.0246 117.061 68.0956 117.031 68.1602C117 68.2248 116.955 68.2812 116.898 68.3247C116.825 68.3815 116.736 68.414 116.643 68.4177C116.55 68.4215 116.458 68.3962 116.381 68.3454L115.559 67.8051" stroke="white" stroke-width="1.6" stroke-miterlimit="10" stroke-linecap="round"/>
<path d="M121.064 34.2487C121.064 34.2487 118.326 27.4525 116.779 24.8942C116.089 23.7635 113.032 21.8094 113.032 23.8585C113.032 23.8585 111.737 35.811 111.823 40.9189C111.904 46.001 114.801 64.2474 114.801 64.2474C114.801 64.2474 118.611 64.477 119.134 63.7796L121.064 34.2487Z" fill="#FF937E"/>
<g style="mix-blend-mode:multiply" opacity="0.5">
<path d="M121.064 34.2487C121.064 34.2487 118.326 27.4524 116.779 24.8941C116.089 23.7635 113.106 21.1413 113.106 23.1852C113.106 23.1852 111.737 35.8057 111.818 40.9137C111.899 45.9957 114.796 64.2421 114.796 64.2421C114.796 64.2421 118.606 64.4717 119.129 63.7743L121.064 34.2487Z" fill="#FF937E"/>
</g>
<path d="M118.345 28.873C118.345 28.873 116.123 39.5516 116.274 41.7008C116.424 43.8499 117.565 63.9175 117.565 63.9175" stroke="white" stroke-width="0.83" stroke-miterlimit="10"/>
<path d="M114.314 64.6336H119.559L119.571 62.8418H114.328L114.314 64.6336Z" fill="#F4B1A8"/>
<path d="M112.586 23.1144C113.161 20.6977 118.756 21.1534 120.608 22.8175C121.887 23.9654 125.153 29.1045 125.865 31.8872C126.69 35.1135 127.102 38.6471 127.674 42.091C127.8 42.8523 128.373 45.7903 128.709 47.3112C129.821 52.3173 131.421 57.7653 131.817 63.6345C130.8 63.8796 128.112 64.558 127.803 63.9918C120.852 51.2366 118.495 40.5943 117.012 37.1591C116.842 36.7646 116.708 36.3556 116.612 35.9369L112.586 23.1144Z" fill="#FF937E"/>
<path d="M118.152 23.1367C118.152 23.1367 122.283 28.6607 123.356 33.1006C124.43 37.5405 130.163 64.173 130.163 64.173" stroke="white" stroke-width="0.83" stroke-miterlimit="10"/>
<path d="M116.262 24.8594C116.262 24.8594 117.187 29.6169 121.418 28.2066" stroke="white" stroke-width="0.83" stroke-miterlimit="10"/>
<path d="M127.574 64.6336H132.816L132.112 62.8418H126.869L127.574 64.6336Z" fill="#F4B1A8"/>
<path d="M104.658 12.6534C104.658 12.6534 108.497 23.7169 111.131 22.2306C112.806 21.2864 113.192 19.2097 113.348 18.9076C113.348 18.3984 113.348 18.0445 113.365 17.9651C113.365 17.9651 114.275 15.0615 115.131 13.9947C115.471 13.3441 115.778 12.6763 116.049 11.994C114.304 10.903 112.888 13.7358 110.339 17.5301C110.266 17.6371 106.886 11.5987 106.886 11.5987C106.954 11.3329 107.494 9.43918 107.059 9.67049C106.624 9.90181 106.689 10.3334 106.557 10.4335C106.424 10.5336 106.199 7.50924 105.866 7.60245C105.4 7.73365 105.923 9.63252 105.624 9.46507C105.326 9.29762 105.207 7.54894 104.934 7.6318C104.501 7.76299 105.191 9.59626 104.993 9.59454C104.794 9.59281 104.647 7.92526 104.333 7.99431C103.9 8.09271 104.59 10.1262 104.359 9.99157C104.128 9.85693 103.931 8.69171 103.731 8.7832C103.53 8.8747 104.658 12.6534 104.658 12.6534Z" fill="#A94846"/>
<path d="M113.734 16.8997C114.08 15.9589 114.615 14.6556 115.131 14.0014C115.471 13.3507 115.778 12.6829 116.049 12.0006C114.86 11.2566 113.822 12.3459 112.476 14.3017C112.878 15.1735 113.303 16.0366 113.734 16.8997Z" fill="#8064A2"/>
<path d="M113.622 13.0918L114.14 6.21619C113.907 5.81915 114.042 4.04285 114.313 3.67343C115.072 2.66185 114.856 1.98689 116.094 1.73313C117.522 1.4414 119.982 1.86778 120.719 3.64236C121.456 5.41694 121.456 7.59718 122.79 13.6943" fill="#031F46"/>
<path d="M118.575 5.42886C118.58 5.44233 118.588 5.4546 118.598 5.46491C118.608 5.47522 118.62 5.48337 118.634 5.48886C118.647 5.49434 118.661 5.49706 118.676 5.49683C118.69 5.49661 118.705 5.49345 118.718 5.48755C118.951 5.3857 119.469 5.10432 119.807 5.68261C120.146 6.26091 119.712 6.86854 119.367 7.04117C119.267 7.0895 119.039 7.21379 119.003 7.31737C118.889 7.6419 119.545 10.8199 119.654 11.5225C119.892 13.0761 115.856 14.7885 115.856 14.7885C115.856 14.7885 114.834 13.9686 115.706 12.2113C116.496 10.6162 116.051 8.75878 116.032 8.74497C115.625 8.5827 114.366 8.91759 114.045 6.24882C113.748 3.78547 115.426 3.25034 115.859 3.14159C116.236 3.05873 117.463 2.61853 118.575 5.42886Z" fill="#A94846"/>
<path d="M119.619 5.97422C119.619 5.97422 118.918 5.35795 118.899 6.59567L119.619 5.97422Z" fill="#753231"/>
<path d="M116.227 6.29539C116.118 6.33982 116.024 6.41568 115.958 6.51339C115.891 6.61109 115.855 6.72626 115.855 6.84434C115.854 6.96242 115.888 7.07812 115.953 7.1768C116.017 7.27548 116.11 7.35273 116.219 7.39878C116.328 7.44483 116.448 7.45761 116.564 7.43552C116.679 7.41343 116.786 7.35744 116.871 7.27465C116.955 7.19185 117.012 7.08596 117.037 6.97035C117.061 6.85474 117.05 6.73459 117.006 6.6251C116.976 6.55214 116.933 6.48569 116.878 6.42957C116.823 6.37345 116.757 6.32878 116.685 6.29813C116.613 6.26748 116.535 6.25146 116.456 6.25099C116.378 6.25052 116.3 6.26561 116.227 6.29539Z" fill="#BD504E"/>
<path d="M114.392 7.61273C114.5 7.53056 114.577 7.41336 114.608 7.28114C114.64 7.14891 114.624 7.00985 114.565 6.88771C114.525 6.78973 114.46 6.70407 114.376 6.63947C114.292 6.57487 114.193 6.53365 114.088 6.52002C114.088 6.52002 114.167 7.23296 114.392 7.61273Z" fill="#BD504E"/>
<path d="M114.547 7.06017L115.564 6.99976C115.564 6.99976 115.338 7.50209 115.046 7.46757C114.754 7.43304 114.547 7.06017 114.547 7.06017Z" fill="white"/>
<path d="M114.88 6.4646L115.036 6.90134L114.798 6.93586C114.788 6.93754 114.777 6.93651 114.768 6.93289C114.758 6.92927 114.75 6.92318 114.744 6.91526C114.737 6.90735 114.733 6.89788 114.732 6.88785C114.73 6.87781 114.732 6.86757 114.735 6.85818L114.88 6.4646Z" fill="#753231"/>
<path d="M115.756 5.82245C115.871 5.8915 115.678 5.5566 115.523 5.52726C115.455 5.50923 115.382 5.51868 115.321 5.55356C115.26 5.58845 115.215 5.64598 115.196 5.71369C115.39 5.68299 115.588 5.7215 115.756 5.82245Z" fill="black"/>
<path d="M114.029 5.89002C113.922 5.97461 114.069 5.61555 114.218 5.56549C114.282 5.53982 114.354 5.54003 114.418 5.56608C114.483 5.59213 114.534 5.64201 114.563 5.70531C114.369 5.70299 114.18 5.76831 114.029 5.89002Z" fill="black"/>
<path d="M115.954 8.71413C116.376 8.67505 116.789 8.56718 117.176 8.39478C117.005 9.25272 116.346 9.3045 115.954 8.71413Z" fill="#031F46"/>
<path d="M115.861 11.8936C115.833 11.809 115.353 11.8021 115.423 11.7382C114.452 13.2452 113.146 15.9157 113.056 17.3468C112.945 19.0989 111.982 23.7235 111.982 23.7235C112.015 23.9427 119.286 23.2902 120.969 23.1936C121.996 20.3297 122.944 16.4612 122.417 14.2171C122.417 14.2171 122.485 13.9236 121.601 12.9345C121.411 12.7239 119.742 11.0218 119.641 10.8906C119.641 10.8924 114.364 15.7189 115.861 11.8936Z" fill="#8064A2"/>
<g style="mix-blend-mode:multiply" opacity="0.5">
<g style="mix-blend-mode:multiply" opacity="0.5">
<path d="M122.338 13.9426C121.951 14.7522 121.335 15.5359 120.907 16.1298C119.999 17.3804 118.972 18.5406 117.841 19.5943C116.287 21.0547 114.625 22.3822 112.994 23.7529C115.065 23.6717 119.673 23.2661 120.969 23.1918C121.996 20.328 122.944 16.4595 122.417 14.2154C122.417 14.2188 122.435 14.1377 122.338 13.9426Z" fill="#5BC29C"/>
</g>
</g>
<path d="M115.146 6.416C115.164 6.5541 115.221 6.6594 115.274 6.65249C115.328 6.64559 115.357 6.5282 115.34 6.39183C115.322 6.25546 115.264 6.15015 115.21 6.15706C115.157 6.16396 115.129 6.27962 115.146 6.416Z" fill="black"/>
<path d="M114.411 6.42114C114.428 6.55751 114.485 6.66282 114.539 6.65591C114.592 6.64901 114.622 6.53162 114.604 6.39525C114.587 6.25887 114.528 6.15357 114.475 6.16048C114.421 6.16738 114.392 6.28477 114.411 6.42114Z" fill="black"/>
<path d="M118.047 6.09548L114.326 4.16209L113.995 5.19783C113.995 5.19783 113.037 3.68047 114.34 3.44397C114.34 3.44397 114.97 1.97148 116.034 1.76951C117.097 1.56754 119.887 3.15051 119.887 3.15051C119.887 3.15051 119.049 3.40772 118.73 5.39462C118.73 5.42052 118.73 5.44641 118.716 5.47231C118.718 5.48784 118.877 6.52704 118.047 6.09548Z" fill="#031F46"/>
<path d="M116.054 11.2271C115.626 11.9176 115.478 12.7617 114.956 13.3935C114.444 13.9839 113.742 14.377 112.971 14.5052C111.267 14.828 109.61 13.9649 108.367 12.8636C107.625 12.1739 106.933 11.432 106.296 10.6436C106.239 10.5746 106.14 10.6747 106.197 10.742C107.371 12.1351 108.614 13.5817 110.327 14.305C111.782 14.9161 113.598 14.8867 114.801 13.7526C115.516 13.0811 115.664 12.104 116.166 11.2979C116.213 11.2219 116.092 11.1512 116.046 11.2271H116.054Z" fill="#031F46"/>
<path d="M104.224 10.7646H109.498V7.16716H104.224V10.7646Z" fill="#031F46"/>
<path d="M103.327 10.7717H108.6V7.14662H103.327V10.7717Z" fill="#FF937E"/>
<path d="M104.007 8.97972C104.007 8.7578 104.073 8.54086 104.196 8.35634C104.319 8.17182 104.495 8.028 104.7 7.94308C104.905 7.85815 105.13 7.83593 105.348 7.87923C105.566 7.92252 105.765 8.02939 105.922 8.18631C106.079 8.34323 106.186 8.54316 106.229 8.76082C106.273 8.97848 106.251 9.20409 106.166 9.40912C106.081 9.61414 105.937 9.78939 105.752 9.91268C105.568 10.036 105.351 10.1018 105.129 10.1018C104.982 10.1018 104.836 10.0728 104.7 10.0164C104.563 9.95998 104.44 9.87733 104.336 9.77314C104.231 9.66894 104.149 9.54525 104.092 9.40912C104.036 9.27298 104.007 9.12707 104.007 8.97972Z" fill="#031F46"/>
<path d="M104.735 10.1018C105.355 10.1018 105.858 9.59942 105.858 8.97972C105.858 8.36003 105.355 7.85767 104.735 7.85767C104.116 7.85767 103.613 8.36003 103.613 8.97972C103.613 9.59942 104.116 10.1018 104.735 10.1018Z" fill="#5BC29C"/>
<path d="M104.055 8.97972C104.055 8.84478 104.095 8.71288 104.17 8.60071C104.245 8.48854 104.352 8.40115 104.477 8.34959C104.601 8.29803 104.739 8.28463 104.871 8.31108C105.003 8.33753 105.125 8.40264 105.22 8.49818C105.315 8.59371 105.38 8.71537 105.406 8.84775C105.432 8.98014 105.419 9.11729 105.367 9.24185C105.315 9.36642 105.227 9.47279 105.115 9.54751C105.002 9.62222 104.87 9.66192 104.735 9.66158C104.646 9.66181 104.557 9.64432 104.474 9.61011C104.392 9.5759 104.317 9.52566 104.253 9.46227C104.19 9.39889 104.14 9.32362 104.106 9.24079C104.072 9.15797 104.055 9.06924 104.055 8.97972Z" fill="#031F46"/>
<path d="M108.022 7.18115H108.716V6.91876H108.022V7.18115Z" fill="#18333D"/>
<path d="M104.423 7.1604H105.97V6.79271H104.423V7.1604Z" fill="#031F46"/>
<path d="M108.633 12.6735C108.633 12.6735 109.213 19.1487 112.398 21.4601C113.149 22.0056 113.895 22.1161 114.739 21.7311C117.444 20.5003 122.797 18.396 122.852 18.0698C124.889 15.9707 123.063 12.5872 122.025 12.8531C118.573 13.7352 116.809 15.3975 114.699 17.1497L110.691 10.8161C110.677 10.5088 110.646 8.29579 110.254 8.68419C109.862 9.0726 110.071 9.51797 109.961 9.66815C109.85 9.81833 108.632 6.6386 108.307 6.84402C107.848 7.13575 109.025 9.00873 108.652 8.92587C108.279 8.84301 107.584 7.00111 107.318 7.17718C106.893 7.45856 108.229 9.20724 108.008 9.27111C107.787 9.33499 107.088 7.58976 106.781 7.76238C106.348 8.00751 107.748 9.97197 107.454 9.90292C107.161 9.83387 106.574 8.64276 106.391 8.81366C106.208 8.98456 108.633 12.6735 108.633 12.6735Z" fill="#A94846"/>
<path d="M122.031 12.8533C120.118 13.3418 118.355 13.7164 117.132 14.5709C117.736 16.1987 119.003 19.249 119.422 20.9321C121.466 20.069 122.823 18.2581 122.857 18.07C124.894 15.9709 123.068 12.584 122.031 12.8533Z" fill="#8064A2"/>
<path d="M109.158 7.99212C112.131 8.27695 113.166 11.5879 114.537 13.725C114.88 14.281 115.295 14.7889 115.771 15.2354C116.218 15.6359 116.752 15.9104 117.366 15.7792C118.009 15.6428 118.632 15.2251 119.163 14.8557C119.692 14.4983 120.158 14.0568 120.544 13.5489C120.975 12.979 121.236 12.2993 121.297 11.5879C121.316 11.2944 121.321 10.9233 121.114 10.6885C121.042 10.5996 120.939 10.5404 120.826 10.5219C120.713 10.5035 120.596 10.5271 120.5 10.5884C120.427 10.6402 120.5 10.761 120.57 10.7092C120.978 10.4244 121.157 11.0545 121.162 11.3359C121.168 11.6531 121.124 11.9693 121.033 12.2732C120.837 12.8973 120.496 13.4663 120.039 13.9338C119.603 14.3753 119.111 14.7567 118.575 15.068C118.01 15.4132 117.327 15.8327 116.645 15.6187C116.065 15.4357 115.609 14.9178 115.233 14.4586C114.843 13.962 114.497 13.433 114.197 12.8774C113.62 11.8555 113.115 10.7869 112.395 9.85301C111.592 8.81726 110.506 7.98176 109.163 7.85229C109.074 7.85229 109.075 7.98349 109.163 7.99212H109.158Z" fill="#031F46"/>
<path d="M120.192 16.708C120.106 16.7456 120.01 16.7583 119.917 16.7445C119.824 16.7308 119.736 16.6913 119.664 16.6303C119.578 16.5691 119.503 16.4951 119.44 16.4111C119.368 16.3257 119.314 16.2264 119.282 16.1194C119.241 15.9295 119.455 15.8708 119.597 15.888C119.686 15.905 119.771 15.9395 119.848 15.9896C119.924 16.0396 119.989 16.1043 120.04 16.1798C120.105 16.2681 120.152 16.3687 120.177 16.4755C120.202 16.5823 120.206 16.6931 120.187 16.8012C120.17 16.8893 120.304 16.9255 120.322 16.8375C120.366 16.5983 120.317 16.3512 120.185 16.147C120.126 16.0484 120.047 15.9629 119.954 15.8958C119.86 15.8288 119.754 15.7815 119.642 15.7569C119.448 15.7258 119.184 15.7862 119.143 16.0123C119.133 16.1542 119.176 16.2947 119.265 16.4059C119.333 16.5132 119.417 16.6093 119.514 16.6907C119.61 16.7874 119.733 16.8524 119.867 16.8771C120.001 16.9017 120.139 16.8849 120.263 16.8288C120.341 16.7874 120.263 16.6666 120.192 16.7097V16.708Z" fill="#FFF8ED"/>
<path d="M121.982 16.4455C121.896 16.2004 121.83 15.9487 121.785 15.6928C121.756 15.5202 121.713 15.2682 121.837 15.1128C121.962 14.9575 122.236 15.0455 122.333 15.2112C122.383 15.3074 122.41 15.4137 122.412 15.5221C122.415 15.6304 122.392 15.7378 122.346 15.8361C122.241 16.0516 122.103 16.2495 121.937 16.423C121.879 16.4904 121.977 16.5957 122.036 16.5214C122.355 16.1589 122.726 15.6721 122.469 15.1698C122.419 15.0615 122.331 14.9755 122.222 14.9283C122.113 14.8811 121.99 14.8761 121.877 14.9143C121.656 15.0075 121.608 15.2596 121.62 15.4805C121.649 15.8238 121.726 16.1613 121.848 16.4835C121.877 16.568 122.02 16.5318 121.982 16.4455Z" fill="#FFF8ED"/>
<path d="M114.375 23.0003C114.216 22.7934 114.036 22.6047 113.836 22.4375C113.795 22.396 113.745 22.365 113.689 22.347C113.633 22.3289 113.574 22.3245 113.517 22.3339C113.471 22.3494 113.43 22.376 113.398 22.4113C113.365 22.4466 113.342 22.4894 113.33 22.5359C113.215 22.8932 113.544 23.2264 113.869 23.3093C113.961 23.3348 114.058 23.3401 114.153 23.3249C114.248 23.3097 114.338 23.2744 114.418 23.2212C114.49 23.1694 114.418 23.0486 114.347 23.1004C114.233 23.171 114.098 23.2011 113.965 23.1858C113.831 23.1704 113.707 23.1105 113.612 23.0158C113.562 22.9726 113.522 22.9196 113.494 22.8602C113.466 22.8008 113.451 22.7362 113.449 22.6706C113.448 22.6379 113.455 22.6055 113.468 22.5756C113.481 22.5457 113.501 22.5192 113.525 22.4979C113.606 22.4444 113.698 22.5238 113.764 22.5739C113.954 22.7365 114.127 22.9175 114.281 23.1142C114.294 23.1273 114.312 23.1346 114.331 23.1346C114.349 23.1346 114.367 23.1273 114.38 23.1142C114.393 23.1012 114.4 23.0835 114.4 23.065C114.4 23.0466 114.393 23.0289 114.38 23.0158L114.375 23.0003Z" fill="#FFF8ED"/>
<path d="M116.826 21.8421C116.737 21.7151 116.678 21.5692 116.653 21.4157C116.64 21.3411 116.636 21.2652 116.641 21.1896C116.64 21.115 116.656 21.0412 116.688 20.9738C116.748 20.8633 116.897 20.8996 116.969 20.9738C117.009 21.0357 117.032 21.106 117.039 21.1789C117.046 21.2519 117.035 21.3254 117.007 21.3933C116.956 21.5747 116.871 21.7447 116.755 21.8939C116.751 21.9017 116.748 21.9103 116.746 21.9194C116.745 21.9284 116.745 21.9375 116.748 21.9464C116.75 21.9552 116.754 21.9635 116.759 21.9708C116.765 21.9781 116.772 21.9842 116.779 21.9888C116.796 21.9979 116.815 22.0005 116.833 21.996C116.851 21.9915 116.866 21.9803 116.876 21.9646C116.999 21.8027 117.09 21.6187 117.144 21.4226C117.176 21.3339 117.187 21.2388 117.175 21.1452C117.163 21.0516 117.129 20.962 117.076 20.884C117.026 20.8252 116.958 20.7849 116.882 20.7696C116.806 20.7542 116.728 20.7647 116.659 20.7994C116.503 20.8961 116.486 21.1447 116.502 21.3035C116.513 21.5205 116.585 21.7299 116.71 21.9077C116.762 21.9802 116.883 21.9077 116.831 21.8369L116.826 21.8421Z" fill="#FFF8ED"/>
<path d="M121.029 22.0889C120.829 22.0157 120.616 21.9846 120.403 21.9974C120.296 22.0075 120.195 22.0482 120.111 22.1147C120.027 22.1812 119.964 22.2706 119.93 22.372C119.913 22.4624 119.926 22.5556 119.965 22.6384C120.005 22.7212 120.07 22.7893 120.151 22.833C120.235 22.8858 120.332 22.9139 120.431 22.9139C120.531 22.9139 120.628 22.8858 120.712 22.833C120.909 22.6992 121.049 22.4976 121.107 22.2667C121.11 22.2579 121.11 22.2487 121.109 22.2396C121.108 22.2305 121.105 22.2218 121.1 22.2138C121.096 22.2059 121.09 22.1989 121.082 22.1934C121.075 22.1878 121.067 22.1837 121.058 22.1813C121.049 22.1789 121.04 22.1783 121.031 22.1795C121.022 22.1807 121.013 22.1836 121.005 22.1882C120.997 22.1928 120.99 22.1989 120.985 22.2061C120.979 22.2134 120.975 22.2217 120.972 22.2305C120.89 22.5101 120.627 22.8882 120.282 22.7484C120.216 22.7275 120.158 22.6861 120.117 22.6302C120.076 22.5744 120.054 22.5069 120.054 22.4376C120.075 22.3565 120.121 22.284 120.186 22.2301C120.25 22.1763 120.33 22.1439 120.413 22.1373C120.609 22.1276 120.804 22.1575 120.988 22.2253C121.006 22.2301 121.025 22.2276 121.041 22.2184C121.057 22.2092 121.069 22.194 121.073 22.1761C121.078 22.1583 121.076 22.1392 121.067 22.1232C121.057 22.1072 121.042 22.0955 121.024 22.0907L121.029 22.0889Z" fill="#FFF8ED"/>
<path d="M114.893 15.6087C114.746 15.5748 114.612 15.4992 114.508 15.3912C114.402 15.2906 114.334 15.1574 114.314 15.0132C114.306 14.901 114.344 14.7473 114.487 14.7473C114.63 14.7473 114.732 14.8941 114.765 15.0132C114.822 15.2169 114.784 15.4326 114.849 15.6363C114.877 15.7209 115.012 15.6847 114.984 15.5984C114.915 15.3878 114.963 15.1582 114.893 14.9493C114.867 14.8612 114.817 14.782 114.749 14.7209C114.681 14.6598 114.596 14.6193 114.506 14.604C114.422 14.6026 114.341 14.6343 114.28 14.6921C114.22 14.7499 114.184 14.8293 114.181 14.913C114.17 15.0907 114.229 15.2657 114.344 15.4016C114.471 15.5735 114.654 15.6957 114.861 15.7468C114.95 15.7675 114.988 15.6329 114.899 15.6122L114.893 15.6087Z" fill="#FFF8ED"/>
<path d="M117.235 13.2264C117.154 13.194 117.067 13.1781 116.979 13.1795C116.892 13.181 116.805 13.1997 116.725 13.2347C116.645 13.2697 116.572 13.3202 116.512 13.3834C116.451 13.4465 116.404 13.5211 116.372 13.6027C116.335 13.6881 116.331 13.7838 116.361 13.8719C116.39 13.96 116.45 14.0344 116.531 14.0809C116.729 14.1689 116.933 14.017 117.049 13.8651C117.102 13.7843 117.14 13.6949 117.163 13.601C117.183 13.5354 117.209 13.4508 117.282 13.4284C117.299 13.4228 117.314 13.4108 117.323 13.3947C117.332 13.3787 117.334 13.3599 117.33 13.3421C117.325 13.3243 117.313 13.3093 117.297 13.3003C117.281 13.2913 117.262 13.2889 117.244 13.2937C117.092 13.3507 117.052 13.4974 117.007 13.639C116.987 13.7139 116.948 13.7827 116.895 13.8395C116.843 13.8964 116.777 13.9395 116.703 13.9652C116.673 13.9751 116.64 13.9754 116.609 13.9662C116.578 13.957 116.551 13.9386 116.531 13.9134C116.493 13.8571 116.478 13.7886 116.489 13.7218C116.501 13.6529 116.528 13.5876 116.569 13.5308C116.61 13.474 116.663 13.4271 116.724 13.3939C116.791 13.3536 116.865 13.3287 116.943 13.3213C117.02 13.3138 117.098 13.3239 117.171 13.3507C117.187 13.3594 117.206 13.3617 117.224 13.3572C117.242 13.3528 117.258 13.3418 117.268 13.3265C117.272 13.3186 117.275 13.3099 117.277 13.3008C117.278 13.2917 117.277 13.2825 117.275 13.2736C117.272 13.2648 117.268 13.2565 117.263 13.2493C117.257 13.2421 117.25 13.2361 117.242 13.2316L117.235 13.2264Z" fill="#FFF8ED"/>
<path d="M122.773 20.4403C122.577 20.4354 122.389 20.3641 122.24 20.2383C122.122 20.1382 121.979 19.9535 122.086 19.7981C122.127 19.748 122.181 19.7108 122.242 19.6909C122.303 19.6709 122.369 19.6692 122.431 19.6859C122.492 19.708 122.546 19.7448 122.589 19.793C122.632 19.8412 122.663 19.8993 122.678 19.9621C122.738 20.121 122.768 20.2895 122.768 20.4593C122.77 20.4759 122.779 20.4911 122.792 20.5021C122.805 20.513 122.821 20.519 122.838 20.519C122.855 20.519 122.871 20.513 122.884 20.5021C122.897 20.4911 122.905 20.4759 122.908 20.4593C122.908 20.2826 122.877 20.1073 122.816 19.9414C122.796 19.8566 122.755 19.778 122.698 19.712C122.641 19.646 122.569 19.5944 122.488 19.5616C122.402 19.5361 122.311 19.5348 122.225 19.558C122.138 19.5811 122.06 19.6278 121.998 19.6928C121.936 19.7805 121.909 19.8882 121.922 19.9948C121.935 20.1014 121.987 20.1993 122.069 20.2694C122.16 20.3661 122.269 20.4438 122.39 20.498C122.511 20.5522 122.642 20.5819 122.775 20.5853C122.791 20.5827 122.807 20.5742 122.818 20.5614C122.828 20.5485 122.835 20.5322 122.835 20.5154C122.835 20.4985 122.828 20.4822 122.818 20.4694C122.807 20.4566 122.791 20.4481 122.775 20.4455L122.773 20.4403Z" fill="#FFF8ED"/>
<path d="M82.0396 31.8716L88.1695 70.2719" stroke="#FF616B" stroke-width="3.14" stroke-miterlimit="10"/>
<path d="M70.5015 31.8716L64.3716 70.2719" stroke="#FF616B" stroke-width="3.14" stroke-miterlimit="10"/>
<path d="M89.2294 29.6292H64.0712V32.2737H89.2294V29.6292Z" fill="#FFC56B"/>
<path d="M87.6275 30.6906H66.5553L71.9636 0.324219H93.0376L87.6275 30.6906Z" fill="#FFC56B"/>
<path d="M86.0065 30.6906H64.9326L70.3409 0.324219H91.4148L86.0065 30.6906Z" fill="white"/>
<path d="M78.0159 25.0133C76.4157 23.8498 74.6791 24.0691 73.0184 24.9494C71.6374 25.6779 70.4291 24.984 69.5141 23.8446C68.9842 23.1887 67.9605 20.9825 66.9351 21.8232C66.8422 21.8999 66.7356 21.9585 66.621 21.9958L65.4126 28.7765H80.298C80.0166 27.2937 79.2398 25.8937 78.0159 25.0133Z" fill="#0096C8"/>
<path d="M86.1655 29.6292H61.0072V32.2737H86.1655V29.6292Z" fill="#FF616B"/>
<path d="M71.4907 3.14164C74.2305 3.72379 76.6853 5.23411 78.4401 7.41728C80.1948 9.60046 81.142 12.3226 81.1214 15.1235C79.5211 15.1131 77.8536 15.0613 76.4364 14.3191C74.515 13.3127 73.4241 11.2567 72.4487 9.31295C71.4734 7.3692 70.4687 5.27872 70.8088 3.13818" fill="#5BC29C"/>
<path d="M76.7107 10.2797L77.7845 11.2499C77.8483 11.3085 77.945 11.2136 77.8794 11.1549L76.8057 10.183C76.7418 10.1243 76.6451 10.221 76.7107 10.2797Z" fill="white"/>
<path d="M79.1206 12.5585L79.9716 13.5114C80.0286 13.577 80.1252 13.4803 80.0665 13.4164L79.2155 12.4635C79.1568 12.3979 79.0619 12.4946 79.1206 12.5585Z" fill="white"/>
<path d="M72.2725 5.22333L72.8663 5.83097C72.9284 5.89311 73.0234 5.79644 72.963 5.7343L72.3674 5.12839C72.307 5.06452 72.2103 5.16119 72.2725 5.22333Z" fill="white"/>
<path d="M86.2379 3.72363C85.2343 4.06457 84.313 4.61155 83.5333 5.32948C82.7535 6.04741 82.1325 6.92043 81.71 7.89251C82.3608 8.2205 83.1652 8.14109 83.8211 7.82001C84.4771 7.49893 85.0036 6.96724 85.4611 6.39758C86.0186 5.70709 86.5106 4.87849 86.4588 3.9912" fill="#5BC29C"/>
<path d="M79.8767 28.747C79.566 27.8839 79.5176 26.8567 79.471 25.9401C79.4244 25.0235 79.6851 24.0412 80.3652 23.4267C81.2991 22.5774 82.7975 22.5722 83.6934 21.6849C84.3459 21.0393 84.5341 20.0761 84.7533 19.187C85.4438 16.4112 86.6021 13.8357 89.2502 12.762L86.4071 28.7867L79.8767 28.747Z" fill="#FF937E"/>
<path d="M59.6209 64.2886L59.6727 68.3798C59.6727 68.3798 60.3114 70.7085 60.9035 69.8074C61.2299 69.2946 61.6261 68.8298 62.0808 68.4264L62.3864 64.456L59.6209 64.2886Z" fill="#FFC56B"/>
<path d="M62.3623 68.4125L65.9615 70.465C66.122 70.5582 66.034 70.7498 65.832 70.7481C64.1697 70.7395 59.6935 70.6929 58.5162 70.6791C58.3729 70.6791 58.2745 70.572 58.3194 70.4719C58.5697 69.9143 59.4156 67.8014 59.5123 67.7876C59.5123 67.7876 60.3529 69.1462 60.8432 69.0098C61.2643 68.8758 61.6621 68.6772 62.0222 68.4211C62.0699 68.3822 62.1292 68.3603 62.1908 68.3587C62.2523 68.3571 62.3127 68.3761 62.3623 68.4125Z" fill="#FF937E"/>
<path d="M63.0889 68.6472L62.4778 69.2065" stroke="white" stroke-width="1.02" stroke-miterlimit="10" stroke-linecap="round"/>
<path d="M63.4929 68.9702L62.8818 69.5295" stroke="white" stroke-width="1.02" stroke-miterlimit="10" stroke-linecap="round"/>
<path d="M44.6492 64.0347L43.9277 65.7316C43.9277 65.7316 43.4512 68.0966 44.3851 67.558C44.8879 67.2541 45.433 67.0267 46.0026 66.883L48.1155 63.4426L44.6492 64.0347Z" fill="#FFC56B"/>
<path d="M46.315 66.9607L48.6075 70.4132C48.7093 70.5668 48.5453 70.6997 48.3641 70.6082C46.8847 69.8521 42.9057 67.7996 41.8613 67.2576C41.7336 67.192 41.6887 67.0539 41.7785 66.9848C42.2514 66.5982 43.957 65.086 44.0502 65.1222C44.0502 65.1222 44.19 66.7138 44.6889 66.8122C45.1259 66.8798 45.5707 66.8798 46.0078 66.8122C46.0682 66.7986 46.1315 66.8059 46.1873 66.8329C46.2431 66.8598 46.2881 66.9049 46.315 66.9607Z" fill="#FF937E"/>
<path d="M46.8588 67.5049L46.0613 67.731" stroke="white" stroke-width="1.02" stroke-miterlimit="10" stroke-linecap="round"/>
<path d="M47.0746 67.9758L46.2771 68.2003" stroke="white" stroke-width="1.02" stroke-miterlimit="10" stroke-linecap="round"/>
<path d="M54.8756 24.2137C53.7863 26.5268 53.2598 27.1483 52.5797 29.9551C51.7908 33.2074 51.9582 37.5851 51.4973 40.8546C51.0261 44.1984 51.0813 43.917 50.2889 47.6388C49.2998 52.2686 46.7122 59.524 44.6528 64.007C44.8375 64.2832 46.5965 65.388 47.7911 66.1251C51.5387 61.504 54.9205 53.6099 56.3809 47.7682C57.4891 43.337 58.3436 40.1728 58.5991 35.902C58.6301 35.3842 59.2291 35.417 59.4242 35.89C61.4957 40.8857 58.1882 59.7674 58.6077 67.0262H63.1132C64.1282 60.0902 65.0121 53.47 65.3746 45.7382C65.7284 38.065 67.2372 31.9403 62.3933 24.2102C59.4587 24.2793 57.2819 24.2603 54.8756 24.2137Z" fill="#0096C8"/>
<path opacity="0.5" d="M57.3578 24.2812C57.3578 24.2812 57.9189 29.6965 52.5244 29.8277" stroke="white" stroke-width="0.75" stroke-miterlimit="10"/>
<path opacity="0.5" d="M61.4438 24.2812C61.6164 24.6265 62.0911 28.9507 65.4003 29.0474" stroke="white" stroke-width="0.75" stroke-miterlimit="10"/>
<path d="M60.3064 10.4591C60.4479 10.0033 58.884 3.28825 58.518 2.98098C57.5133 2.1403 56.5328 1.94523 55.2519 2.22316C54.2611 2.43721 51.9721 3.64903 51.4128 10.699" fill="#FF616B"/>
<path d="M54.7772 3.16749C55.5732 3.16749 56.2186 2.52215 56.2186 1.72608C56.2186 0.93001 55.5732 0.284668 54.7772 0.284668C53.9811 0.284668 53.3358 0.93001 53.3358 1.72608C53.3358 2.52215 53.9811 3.16749 54.7772 3.16749Z" fill="#FF616B"/>
<path d="M59.6693 5.7413C59.0893 3.2348 57.2716 3.30212 56.8072 3.35564C56.4153 3.40224 55.0637 3.4057 54.9705 6.5371C54.9703 6.55199 54.967 6.56669 54.9609 6.58027C54.9548 6.59386 54.946 6.60605 54.935 6.61608C54.924 6.62612 54.911 6.63378 54.897 6.63861C54.8829 6.64343 54.8679 6.64531 54.8531 6.64413C54.5907 6.62859 53.99 6.53537 53.8588 7.21897C53.7276 7.90256 54.3766 8.34102 54.7685 8.38763C54.8842 8.39972 55.1483 8.43942 55.2208 8.52919C55.3068 8.59194 55.4082 8.63013 55.5142 8.63966L55.1552 12.1975C61.7408 14.7471 58.9702 11.9834 58.9702 11.9834L58.2089 8.77604C58.2987 8.77604 58.6957 8.81402 58.6992 8.81402C59.3672 8.69663 60.2959 8.44115 59.6693 5.7413Z" fill="#FFC56B"/>
<path d="M54.8428 5.69823L56.3567 5.09232C56.3567 5.09232 56.2445 3.99443 56.2807 4.10836C56.4403 4.32461 56.6182 4.52675 56.8124 4.71255L58.5904 4.22057L57.7584 2.97077L59.1221 4.56236C59.1221 4.56236 58.6284 1.56215 56.5845 2.49087C54.5407 3.41959 54.8428 5.69823 54.8428 5.69823Z" fill="#FF616B"/>
<path d="M58.2088 8.77571L57.0384 8.49951C57.0384 8.49951 57.4095 9.92193 58.2088 8.77571Z" fill="#1E2046"/>
<path d="M54.1073 7.29321C54.1073 7.29321 54.5734 6.44563 55.0274 7.64709L54.1073 7.29321Z" fill="#FA9E52"/>
<path d="M57.2196 6.54224C57.3422 6.54677 57.4606 6.58754 57.5599 6.65939C57.6593 6.73124 57.7351 6.83095 57.7777 6.94589C57.8204 7.06084 57.828 7.18585 57.7996 7.30512C57.7712 7.42439 57.7081 7.53255 57.6182 7.61592C57.5283 7.69929 57.4157 7.75413 57.2946 7.77348C57.1735 7.79284 57.0494 7.77585 56.938 7.72466C56.8266 7.67348 56.7329 7.59039 56.6687 7.48593C56.6045 7.38146 56.5728 7.2603 56.5775 7.13779C56.5804 7.05647 56.5993 6.97651 56.6332 6.90252C56.667 6.82853 56.7152 6.76196 56.7749 6.70662C56.8345 6.65128 56.9045 6.60828 56.9809 6.58007C57.0572 6.55186 57.1383 6.539 57.2196 6.54224Z" fill="#FA9E52"/>
<path d="M59.8574 6.90456C59.5778 6.83551 59.2999 6.59211 59.3102 6.29174C59.3165 6.17687 59.3513 6.06538 59.4116 5.9674C59.4719 5.86942 59.5557 5.78806 59.6555 5.73071C59.7734 6.11157 59.8413 6.50617 59.8574 6.90456Z" fill="#FA9E52"/>
<path d="M58.801 6.70476L59.0737 6.57874C59.088 6.57371 59.1007 6.56501 59.1105 6.55353C59.1203 6.54205 59.127 6.52819 59.1298 6.51333C59.1326 6.49847 59.1314 6.48314 59.1264 6.46887C59.1214 6.4546 59.1128 6.44189 59.1013 6.43201L58.6957 6.00391" fill="#FA9E52"/>
<path d="M57.4442 5.34438C57.3561 5.45313 57.4269 5.05782 57.5667 4.97324C57.627 4.93198 57.701 4.91592 57.7729 4.9285C57.8449 4.94108 57.909 4.9813 57.9517 5.04056C57.7524 5.08 57.5731 5.18738 57.4442 5.34438Z" fill="#183350"/>
<path d="M59.2757 5.21502C59.4086 5.26163 59.1393 4.96299 58.977 4.96644C58.9041 4.96265 58.8327 4.98768 58.7781 5.03613C58.7235 5.08458 58.6902 5.15255 58.6853 5.22538C58.8748 5.15262 59.0838 5.14896 59.2757 5.21502Z" fill="#183350"/>
<path d="M58.202 6.19708C58.2417 6.31273 58.3177 6.39042 58.3746 6.3697C58.4316 6.34899 58.4437 6.24196 58.4057 6.12803C58.3677 6.01409 58.2901 5.93296 58.2331 5.9554C58.1761 5.97784 58.164 6.08487 58.202 6.19708Z" fill="#183350"/>
<path d="M58.9322 5.95038C58.9702 6.06086 59.0427 6.13681 59.0962 6.123C59.1497 6.10919 59.1635 6.00217 59.1255 5.89169C59.0876 5.78121 59.0151 5.70698 58.9616 5.71906C58.908 5.73114 58.896 5.84162 58.9322 5.95038Z" fill="#183350"/>
<path d="M58.0053 7.07404C58.0813 7.05505 59.426 6.65283 59.426 6.65283C59.426 6.65283 59.3138 7.34333 58.9634 7.41928C58.6129 7.49524 58.0053 7.07404 58.0053 7.07404Z" fill="#FFF8ED"/>
<path d="M62.2344 15.9832C62.2344 15.9832 65.0637 16.8359 65.6783 16.1213C66.1961 15.5153 69.1135 11.274 69.93 9.61505C70.075 9.31987 70.6291 8.75193 71.5492 8.64663C72.7231 8.51198 75.2762 8.54996 75.271 8.9142C75.271 9.37683 72.585 9.91887 72.585 9.91887C72.585 9.91887 72.9457 11.7211 71.2972 11.8057C71.2972 11.8057 69.4501 19.4943 68.1658 20.0813C66.8814 20.6682 61.6958 20.8702 61.6958 20.8702L62.2344 15.9832Z" fill="#FFC56B"/>
<path d="M74.4425 7.6936L74.8896 8.22529L71.589 12.1853C71.5114 12.2789 71.4005 12.3386 71.2797 12.3518C71.1588 12.365 71.0376 12.3307 70.9417 12.2561C70.8898 12.2165 70.8468 12.1664 70.8154 12.1092C70.784 12.052 70.7649 11.9888 70.7594 11.9238C70.7538 11.8588 70.762 11.7933 70.7833 11.7316C70.8046 11.6699 70.8385 11.6134 70.883 11.5656L74.4425 7.6936Z" fill="#A94846"/>
<path d="M71.727 9.32129C71.727 9.32129 73.6673 9.79773 73.5085 10.1671C73.3497 10.5366 71.4249 10.6073 71.4249 10.6073L71.727 9.32129Z" fill="#FFC56B"/>
<path d="M74.4426 7.6937C74.4426 7.6937 74.068 7.34846 74.8292 6.91344C75.5905 6.47843 75.991 6.55266 75.991 6.55266C75.991 6.55266 76.1101 8.0752 75.3903 8.15634C74.6704 8.23747 74.8845 8.22539 74.8845 8.22539L74.4426 7.6937Z" fill="white"/>
<path d="M63.4308 21.1964L64.4665 15.9072C63.2582 14.0653 60.6861 12.0422 59.4604 12.0283C59.4363 12.0283 59.4155 12.0508 59.3948 12.0836C59.1255 11.873 58.8407 11.6641 58.8442 11.652C60.0042 14.3536 55.4072 11.2688 55.4072 11.2688C54.7978 11.3154 51.9547 12.6222 49.6951 14.2397C48.1 15.3773 48.5954 15.0855 48.5954 15.0855C48.5954 15.0855 51.2038 19.1681 51.8097 19.8223C51.934 20.304 52.5227 19.1923 52.5227 19.1923L53.6568 25.7623L64.073 25.8435C64.1972 25.7606 63.4014 20.7856 62.3743 17.6145C62.5504 17.9908 63.1511 21.3293 63.4308 21.1964Z" fill="#FF937E"/>
<path d="M51.511 12.5375C51.2935 13.3574 51.9063 14.0911 52.3965 14.6797C52.9144 15.2943 53.5082 15.876 54.2471 16.2126C55.4244 16.7478 57.2973 16.4837 57.5787 14.9801C57.6996 14.331 57.3319 13.5991 56.6362 13.4783C55.8197 13.3471 56.1546 14.5365 56.4066 14.9059C56.6102 15.1932 56.8863 15.4214 57.2069 15.5673C57.5274 15.7131 57.8809 15.7714 58.2312 15.7362C59.0357 15.6723 59.7452 15.2356 60.2907 14.659C60.9221 13.9661 61.419 13.1618 61.7562 12.2872C62.132 11.4088 62.2429 10.4398 62.0756 9.49928C62.0566 9.40779 61.9185 9.44577 61.9375 9.53726C62.2327 10.9873 61.6613 12.4443 60.8845 13.6492C60.1612 14.773 58.8855 15.9796 57.4234 15.5049C56.8019 15.3029 56.2737 14.7056 56.2616 14.0341C56.2616 13.8201 56.2996 13.6026 56.5568 13.6129C56.7501 13.6337 56.9316 13.716 57.0747 13.8477C57.2026 13.9615 57.3032 14.1027 57.369 14.2608C57.4347 14.419 57.4639 14.5899 57.4544 14.7609C57.3888 16.2023 55.6246 16.5821 54.5198 16.1712C53.7896 15.9002 53.1906 15.3668 52.6814 14.7902C52.1721 14.2137 51.4264 13.4092 51.6456 12.5737C51.6507 12.5554 51.6482 12.5358 51.6388 12.5193C51.6294 12.5028 51.6139 12.4907 51.5956 12.4857C51.5773 12.4806 51.5577 12.4831 51.5412 12.4925C51.5247 12.5019 51.5126 12.5174 51.5075 12.5357L51.511 12.5375Z" fill="#FFF8ED"/>
<path d="M56.7416 26.2716C56.4275 24.0793 56.9799 21.8283 58.114 19.9432C59.2205 18.1031 60.876 16.653 62.7611 15.6449C63.827 15.0783 64.9571 14.6419 66.1272 14.345C66.1451 14.3394 66.1601 14.3271 66.1691 14.3107C66.1781 14.2942 66.1804 14.2749 66.1754 14.2569C66.1705 14.2388 66.1588 14.2233 66.1428 14.2137C66.1267 14.2041 66.1075 14.201 66.0893 14.2052C63.9668 14.7314 61.9925 15.7351 60.3167 17.1398C58.6222 18.5736 57.4037 20.4887 56.8228 22.631C56.5045 23.8314 56.4299 25.0834 56.6036 26.3131C56.6156 26.4046 56.7555 26.3666 56.7416 26.2751V26.2716Z" fill="#FFF8ED"/>
<path d="M52.338 22.6463C53.5944 23.3393 54.9837 23.7577 56.4139 23.8738C57.844 23.9898 59.2826 23.8009 60.6343 23.3195C61.2351 23.102 61.9117 22.8466 62.3882 22.4081C62.7783 22.0473 62.9613 21.4828 62.6333 21.0167C62.5746 20.9277 62.4944 20.855 62.4001 20.8051C62.3058 20.7553 62.2005 20.73 62.0939 20.7315C61.9873 20.7331 61.8828 20.7614 61.79 20.814C61.6972 20.8665 61.6192 20.9416 61.563 21.0323C61.2471 21.5035 61.4491 22.068 61.8617 22.3926C62.4451 22.8586 63.2979 23.0123 64.0247 23.0278C64.839 23.0435 65.644 22.8517 66.3637 22.4702C66.4466 22.4271 66.3741 22.2976 66.2912 22.3459C65.7224 22.6483 65.0966 22.828 64.454 22.8735C63.8115 22.919 63.1665 22.8293 62.5608 22.6101C62.0343 22.4115 61.3904 21.9731 61.5838 21.3223C61.6614 21.0651 61.8893 20.8199 62.181 20.8717C62.3048 20.9074 62.4153 20.9788 62.4986 21.0771C62.5818 21.1754 62.6341 21.2962 62.6488 21.4241C62.7628 22.0473 62.15 22.4599 61.6718 22.7136C61.1248 22.9945 60.5511 23.22 59.9594 23.3869C58.7874 23.7186 57.5651 23.8356 56.3515 23.7321C54.9671 23.6129 53.6238 23.201 52.4105 22.5238C52.4024 22.519 52.3935 22.5159 52.3843 22.5145C52.375 22.5132 52.3656 22.5137 52.3565 22.5161C52.3475 22.5184 52.339 22.5225 52.3315 22.5281C52.324 22.5337 52.3177 22.5407 52.313 22.5488C52.3082 22.5568 52.3051 22.5657 52.3038 22.575C52.3024 22.5842 52.3029 22.5937 52.3053 22.6027C52.3076 22.6118 52.3117 22.6203 52.3173 22.6278C52.3229 22.6353 52.3299 22.6416 52.338 22.6463Z" fill="#FFF8ED"/>
<path d="M49.4378 13.8821C50.6306 14.4707 51.4886 15.5686 51.9564 16.796C52.5088 18.2512 52.526 19.8445 52.3707 21.3757C52.362 21.4672 52.5053 21.4672 52.5157 21.3757C52.6745 19.791 52.6503 18.1321 52.0461 16.6355C51.5576 15.4271 50.698 14.343 49.5103 13.7578C49.4292 13.7181 49.3549 13.8407 49.4378 13.8821Z" fill="#FFF8ED"/>
<path d="M52.3914 21.3981C52.5664 20.8386 52.8223 20.3076 53.1509 19.8221C53.4634 19.3612 53.8829 18.7863 54.4284 18.5896C54.5477 18.5443 54.6757 18.5268 54.8027 18.5381C54.9298 18.5495 55.0526 18.5895 55.162 18.6552C55.4503 18.8433 55.4693 19.2179 55.3346 19.5062C55.1864 19.7661 54.9787 19.9874 54.7287 20.1518C54.5011 20.3211 54.2617 20.4739 54.0123 20.6093C53.4276 20.9233 52.7936 21.1352 52.1376 21.2359C52.0462 21.2497 52.0841 21.3878 52.1756 21.374C53.1705 21.2224 54.1097 20.8176 54.9031 20.1984C55.1619 20.0199 55.3677 19.7748 55.4986 19.4889C55.551 19.3707 55.5731 19.2413 55.5631 19.1125C55.5531 18.9836 55.5112 18.8592 55.4412 18.7505C55.3712 18.6418 55.2752 18.5522 55.162 18.4898C55.0488 18.4273 54.9219 18.394 54.7926 18.3928C54.1556 18.3565 53.6619 18.9244 53.3046 19.3767C52.8367 19.9681 52.4816 20.6404 52.2568 21.3602C52.2291 21.4482 52.3672 21.4862 52.3949 21.3981H52.3914Z" fill="#FFF8ED"/>
<path d="M63.3531 12.6481C62.9278 12.7439 62.5236 12.9164 62.1602 13.1573C61.8374 13.3714 61.4697 13.6545 61.3282 14.0325C61.2962 14.113 61.2853 14.2004 61.2968 14.2863C61.3082 14.3722 61.3415 14.4537 61.3935 14.523C61.4455 14.5923 61.5144 14.6471 61.5937 14.6821C61.6729 14.7172 61.7598 14.7312 61.8461 14.723C62.0537 14.7029 62.2507 14.6219 62.4123 14.49C62.5933 14.3627 62.7662 14.2244 62.9301 14.0757C63.3059 13.733 63.637 13.3444 63.9158 12.9191C63.9659 12.8414 63.8416 12.7689 63.7915 12.8466C63.58 13.169 63.3372 13.4697 63.0665 13.7443C62.8084 14.0246 62.5134 14.2685 62.1896 14.4693C62.1117 14.5217 62.023 14.556 61.93 14.5694C61.8371 14.5829 61.7423 14.5752 61.6527 14.547C61.6086 14.5293 61.5686 14.5026 61.5352 14.4687C61.5018 14.4349 61.4758 14.3944 61.4588 14.35C61.4418 14.3056 61.4341 14.2582 61.4363 14.2107C61.4385 14.1632 61.4505 14.1166 61.4715 14.074C61.5923 13.7287 61.9479 13.475 62.2362 13.2833C62.5892 13.0496 62.9816 12.8817 63.3945 12.7879C63.4843 12.7672 63.4463 12.6291 63.3565 12.6498L63.3531 12.6481Z" fill="#FFF8ED"/>
<path d="M61.8392 33.7601C60.9901 33.8974 60.1196 33.7965 59.3245 33.4686C58.5294 33.1407 57.8408 32.5986 57.3354 31.9027C56.5414 30.8203 56.0183 29.3254 56.9816 27.6061C58.9633 24.0604 63.1701 25.8021 63.5309 26.7637C63.8917 27.7252 64.1316 27.7856 62.9906 29.1079C61.8496 30.4302 62.8352 30.7133 63.2305 32.1133C63.5275 33.168 62.7662 33.6013 61.8392 33.7601Z" fill="white"/>
<path d="M60.8276 32.1717C61.0926 32.1717 61.3075 31.9568 61.3075 31.6918C61.3075 31.4268 61.0926 31.2119 60.8276 31.2119C60.5626 31.2119 60.3477 31.4268 60.3477 31.6918C60.3477 31.9568 60.5626 32.1717 60.8276 32.1717Z" fill="#FF616B"/>
<path d="M59.5053 31.3919C59.8038 31.3919 60.0457 31.15 60.0457 30.8516C60.0457 30.5532 59.8038 30.3113 59.5053 30.3113C59.2069 30.3113 58.965 30.5532 58.965 30.8516C58.965 31.15 59.2069 31.3919 59.5053 31.3919Z" fill="#5BC29C"/>
<path d="M60.8277 27.5455C60.828 27.4382 60.7965 27.3332 60.7372 27.2439C60.6778 27.1545 60.5933 27.0848 60.4943 27.0435C60.3952 27.0022 60.2862 26.9912 60.1809 27.0119C60.0757 27.0326 59.9789 27.0841 59.903 27.1599C59.827 27.2356 59.7752 27.3322 59.7541 27.4374C59.7331 27.5426 59.7437 27.6516 59.7847 27.7508C59.8257 27.8499 59.8951 27.9347 59.9843 27.9943C60.0735 28.054 60.1783 28.0858 60.2856 28.0858C60.4291 28.0858 60.5667 28.0289 60.6683 27.9276C60.7699 27.8264 60.8272 27.6889 60.8277 27.5455Z" fill="#45A2B9"/>
<path d="M62.4486 27.3657C62.4483 27.2589 62.4163 27.1547 62.3567 27.066C62.2971 26.9774 62.2126 26.9084 62.1139 26.8678C62.0151 26.8272 61.9065 26.8167 61.8018 26.8377C61.6971 26.8588 61.601 26.9104 61.5256 26.986C61.4502 27.0616 61.3989 27.1579 61.3782 27.2627C61.3575 27.3674 61.3683 27.476 61.4093 27.5746C61.4502 27.6733 61.5195 27.7575 61.6083 27.8168C61.6971 27.8761 61.8015 27.9078 61.9083 27.9078C61.9794 27.9078 62.0498 27.8937 62.1155 27.8665C62.1811 27.8392 62.2408 27.7993 62.291 27.7489C62.3412 27.6986 62.3809 27.6388 62.408 27.573C62.435 27.5073 62.4488 27.4368 62.4486 27.3657Z" fill="#1E2046"/>
<path d="M59.8712 28.9834C59.8712 28.8762 59.8394 28.7714 59.7798 28.6823C59.7203 28.5932 59.6356 28.5237 59.5366 28.4827C59.4375 28.4416 59.3285 28.4309 59.2234 28.4518C59.1183 28.4727 59.0217 28.5244 58.9459 28.6002C58.8701 28.676 58.8184 28.7726 58.7975 28.8777C58.7766 28.9828 58.7873 29.0918 58.8284 29.1909C58.8694 29.2899 58.9389 29.3746 59.028 29.4341C59.1171 29.4937 59.2219 29.5255 59.3291 29.5255C59.4729 29.5255 59.6108 29.4684 59.7124 29.3667C59.8141 29.2651 59.8712 29.1272 59.8712 28.9834Z" fill="#FF937E"/>
<path d="M56.7001 28.2465C56.9866 28.5088 58.4073 28.9646 58.3694 29.4548C58.3314 29.9451 57.1921 29.1234 57.1368 29.3927C57.0816 29.662 58.3089 29.7034 58.2295 30.0832C58.1501 30.463 57.0522 29.9106 56.978 30.1056C56.9038 30.3007 58.2192 30.3162 58.0535 30.6114C57.8877 30.9066 57.0177 30.5044 56.7001 30.5752C56.3825 30.6459 58.0552 30.86 57.1852 31.0533C56.871 31.1241 56.5119 30.9584 55.8197 30.8203C45.0083 27.2729 43.4426 26.988 49.0874 15.8779C49.6553 16.5788 50.5823 18.2826 51.5041 19.3805C48.5212 26.2993 53.0301 25.8125 56.9538 27.6802" fill="#FFC56B"/>
</svg>
